<svg width="200" height="64" viewBox="0 0 200 64" fill="none" xmlns="http://www.w3.org/2000/svg">
<path d="M163.537 45.6603C158.584 45.6603 155.423 43.2489 155.293 39.7296L159.627 39.4037C159.757 40.9678 161.126 41.978 163.505 41.978C165.395 41.978 166.503 41.3263 166.503 40.3161C166.503 37.2856 156.108 40.0554 156.108 33.5055C156.108 30.1165 158.877 28.3242 163.016 28.3242C167.448 28.3242 170.185 30.4098 170.315 33.5055L165.949 33.8314C165.818 32.6582 164.873 32.0065 163.081 32.0065C161.452 32.0065 160.605 32.5605 160.605 33.3426C160.605 36.0798 171 33.6033 171 40.1532C171 43.5748 168.165 45.6603 163.537 45.6603Z" fill="black"/>
<path d="M144.977 45.139V28.8457H149.376V32.2673C150.06 30.0514 151.266 28.8457 152.993 28.8457H155.991V32.528H153.319C150.419 32.528 149.376 34.0596 149.376 38.361V45.139H144.977Z" fill="black"/>
<path d="M135.943 45.6603C130.696 45.6603 127.145 42.1736 127.145 36.9597C127.145 31.9088 130.566 28.3242 135.324 28.3242C140.114 28.3242 143.47 31.9088 143.47 37.0574V38.2957H131.674C131.674 40.479 133.303 41.978 135.682 41.978C137.312 41.978 138.55 41.2611 139.039 40.0228L143.47 40.3487C142.982 43.5422 140.016 45.6603 135.943 45.6603ZM138.941 35.1022C138.941 33.2448 137.475 32.0065 135.324 32.0065C133.173 32.0065 131.674 33.2774 131.674 35.1022H138.941Z" fill="black"/>
<path d="M121.385 35.591C121.385 33.2448 120.505 32.0065 118.876 32.0065C116.791 32.0065 115.422 34.0595 115.422 37.2204V45.1389H111.023V35.591C111.023 33.2448 110.143 32.0065 108.514 32.0065C106.428 32.0065 105.059 34.0595 105.059 37.2204V45.1389H100.66V28.8456H105.059V31.5503C106.07 29.5299 107.862 28.3242 110.175 28.3242C112.587 28.3242 114.216 29.6277 114.966 32.0391C116.008 29.758 118.029 28.3242 120.538 28.3242C123.894 28.3242 125.784 30.866 125.784 35.3955V45.1389H121.385V35.591Z" fill="black"/>
<path d="M89.9143 45.6603C85.3196 45.6603 82.2891 42.5646 82.2891 37.8721C82.2891 32.4301 86.2321 28.3242 91.4785 28.3242C96.0732 28.3242 99.1364 31.4525 99.1364 36.145C99.1364 41.587 95.1608 45.6603 89.9143 45.6603ZM90.2076 41.978C92.782 41.978 94.672 39.534 94.672 36.1776C94.672 33.5381 93.4011 32.0065 91.2504 32.0065C88.6761 32.0065 86.7534 34.4831 86.7534 37.8069C86.7534 40.3813 88.0895 41.978 90.2076 41.978Z" fill="black"/>
<path d="M72.2893 45.6603C67.6946 45.6603 64.6641 42.5646 64.6641 37.8721C64.6641 32.4301 68.607 28.3242 73.8535 28.3242C78.4482 28.3242 81.5114 31.4525 81.5114 36.145C81.5114 41.587 77.5358 45.6603 72.2893 45.6603ZM72.5826 41.978C75.157 41.978 77.047 39.534 77.047 36.1776C77.047 33.5381 75.7761 32.0065 73.6254 32.0065C71.051 32.0065 69.1284 34.4831 69.1284 37.8069C69.1284 40.3813 70.4645 41.978 72.5826 41.978Z" fill="black"/>
<path d="M47.1289 45.1388V22.3281H53.6462C58.9905 22.3281 62.4772 24.8047 62.4772 28.6499C62.4772 30.9962 61.2063 32.6907 59.186 33.3098C62.021 33.929 63.7807 35.8842 63.7807 38.6215C63.7807 42.5319 60.2287 45.1388 54.9497 45.1388H47.1289ZM54.9497 41.4565C57.6544 41.4565 59.2837 40.316 59.2837 38.4259C59.2837 36.5359 57.6544 35.3954 54.9497 35.3954H51.4629V41.4565H54.9497ZM53.6462 31.7457C56.4161 31.7457 57.9803 30.7029 57.9803 28.878C57.9803 27.0532 56.4161 26.0104 53.6462 26.0104H51.4629V31.7457H53.6462Z" fill="black"/>
<path d="M91.0507 33.9707L91.8388 36.1005L93.9686 36.8886L91.8388 37.6767L91.0507 39.8065L90.2626 37.6767L88.1328 36.8886L90.2626 36.1005L91.0507 33.9707Z" fill="black"/>
<path d="M73.5429 33.9707L74.331 36.1005L76.4608 36.8886L74.331 37.6767L73.5429 39.8065L72.7548 37.6767L70.625 36.8886L72.7548 36.1005L73.5429 33.9707Z" fill="black"/>
</svg>
