<svg width="100" height="19" viewBox="0 0 100 19" fill="none" xmlns="http://www.w3.org/2000/svg">
<g clip-path="url(#clip0_583_12720)">
<path d="M90.8174 14.1271C90.8174 13.3058 91.0823 12.6501 91.6122 12.16C92.1553 11.6566 92.8639 11.3387 93.7382 11.2063L96.2219 10.8288C96.6987 10.7625 96.9372 10.5307 96.9372 10.1333C96.9372 9.69619 96.7848 9.34517 96.4802 9.08024C96.1755 8.80207 95.7185 8.66299 95.1092 8.66299C94.5263 8.66299 94.0627 8.82856 93.7183 9.15972C93.3739 9.47763 93.1752 9.89489 93.1222 10.4115L91.0161 9.93463C91.1088 9.06037 91.5261 8.31858 92.2679 7.70925C93.0096 7.08668 93.9501 6.77539 95.0893 6.77539C96.4934 6.77539 97.5266 7.11317 98.1889 7.78873C98.8645 8.46429 99.2023 9.33192 99.2023 10.3916V15.2C99.2023 15.8358 99.242 16.3524 99.3215 16.7498H97.1756C97.1094 16.5511 97.0762 16.1405 97.0762 15.5179C96.4404 16.5379 95.447 17.0479 94.0958 17.0479C93.1156 17.0479 92.3208 16.7631 91.7115 16.1935C91.1154 15.6107 90.8174 14.9218 90.8174 14.1271ZM94.533 15.2398C95.2483 15.2398 95.8245 15.0477 96.2616 14.6635C96.712 14.2662 96.9372 13.6237 96.9372 12.7362V12.2991L94.4137 12.6766C93.5527 12.8223 93.1222 13.2594 93.1222 13.988C93.1222 14.3324 93.2481 14.6304 93.4998 14.8821C93.7514 15.1205 94.0958 15.2398 94.533 15.2398Z" fill="#044D80"/>
<path d="M90.4633 7.01273V9.35732C90.1984 9.31759 89.9467 9.29772 89.7083 9.29772C87.973 9.29772 87.1054 10.2448 87.1054 12.139V16.7487H84.8005V7.07234H87.0458V8.62216C87.271 8.10555 87.6352 7.70154 88.1386 7.41012C88.642 7.10546 89.2115 6.95312 89.8474 6.95312C90.0593 6.95312 90.2646 6.97299 90.4633 7.01273Z" fill="#044D80"/>
<path d="M83.8698 7.01273V9.35732C83.6049 9.31759 83.3532 9.29772 83.1148 9.29772C81.3795 9.29772 80.5119 10.2448 80.5119 12.139V16.7487H78.207V7.07234H80.4523V8.62216C80.6775 8.10555 81.0417 7.70154 81.5451 7.41012C82.0485 7.10546 82.618 6.95312 83.2539 6.95312C83.4658 6.95312 83.6711 6.97299 83.8698 7.01273Z" fill="#044D80"/>
<path d="M74.0317 15.6757C73.8066 16.0996 73.4357 16.4308 72.9191 16.6692C72.4157 16.9076 71.8726 17.0268 71.2898 17.0268C70.1638 17.0268 69.2697 16.6626 68.6074 15.934C67.9583 15.2055 67.6338 14.2849 67.6338 13.1722V7.07227H69.9386V12.7549C69.9386 13.404 70.0976 13.9338 70.4155 14.3445C70.7334 14.7551 71.2235 14.9604 71.8858 14.9604C72.5349 14.9604 73.0316 14.7617 73.376 14.3643C73.7337 13.967 73.9125 13.4437 73.9125 12.7947V7.07227H76.2174V14.9803C76.2174 15.5631 76.2505 16.1526 76.3167 16.7487H74.1112C74.0582 16.4573 74.0317 16.0996 74.0317 15.6757Z" fill="#044D80"/>
<path d="M64.332 4.11133V7.07187H66.3388V9.11842H64.332V13.6089C64.332 14.0328 64.4314 14.3441 64.6301 14.5428C64.8288 14.7282 65.14 14.8209 65.5639 14.8209C65.8288 14.8209 66.0938 14.7945 66.3587 14.7415V16.6489C66.0143 16.7946 65.5441 16.8675 64.948 16.8675C64.0472 16.8675 63.3385 16.6158 62.8219 16.1125C62.3053 15.5958 62.047 14.8872 62.047 13.9864V9.11842H60.2588V7.07187H60.7555C61.2456 7.07187 61.6165 6.93279 61.8682 6.65461C62.1199 6.37644 62.2457 6.01217 62.2457 5.5618V4.11133H64.332Z" fill="#044D80"/>
<path d="M53.3002 11.1662V16.7495H50.9954V7.07309H53.2406V8.36461C53.5453 7.83475 53.9493 7.44399 54.4526 7.19231C54.9692 6.92738 55.519 6.79492 56.1018 6.79492C57.241 6.79492 58.1086 7.15257 58.7047 7.86787C59.3008 8.58317 59.5988 9.50379 59.5988 10.6297V16.7495H57.294V11.0271C57.294 10.378 57.135 9.86143 56.8171 9.47729C56.4992 9.0799 55.9958 8.88121 55.307 8.88121C54.6712 8.88121 54.1745 9.09977 53.8168 9.5369C53.4724 9.96078 53.3002 10.5039 53.3002 11.1662Z" fill="#044D80"/>
<path d="M42.7126 10.8486H47.4614C47.4349 10.2393 47.2163 9.72931 46.8057 9.31868C46.4083 8.90804 45.8321 8.70272 45.0771 8.70272C44.3883 8.70272 43.8319 8.92129 43.408 9.35841C42.9842 9.7823 42.7523 10.279 42.7126 10.8486ZM47.7197 13.372L49.6669 13.988C49.3887 14.8755 48.8655 15.6107 48.0972 16.1935C47.3422 16.7631 46.4083 17.0479 45.2956 17.0479C43.918 17.0479 42.7457 16.5776 41.7787 15.6371C40.825 14.6967 40.3481 13.4383 40.3481 11.862C40.3481 10.3784 40.8118 9.15972 41.739 8.20599C42.6795 7.25226 43.7856 6.77539 45.0572 6.77539C46.5408 6.77539 47.6998 7.23239 48.5343 8.14638C49.3689 9.04713 49.7861 10.2658 49.7861 11.8024C49.7861 12.213 49.7662 12.458 49.7265 12.5375H42.653C42.6795 13.2661 42.9444 13.8688 43.4478 14.3456C43.9644 14.8225 44.5803 15.0609 45.2956 15.0609C46.5408 15.0609 47.3488 14.498 47.7197 13.372Z" fill="#044D80"/>
<path d="M33.8464 17.0468C31.8727 17.0468 30.1904 16.3778 28.7996 15.04C27.422 13.7021 26.7332 11.9271 26.7332 9.71496C26.7332 7.51608 27.4352 5.74108 28.8393 4.38996C30.2434 3.03884 31.9058 2.36328 33.8265 2.36328C35.5221 2.36328 36.9129 2.79379 37.9991 3.65479C39.0986 4.5158 39.8205 5.60862 40.1649 6.93325L37.9196 7.68828C37.6944 6.77429 37.2374 6.0325 36.5486 5.46291C35.8598 4.89332 34.9525 4.60853 33.8265 4.60853C32.5681 4.60853 31.4753 5.0589 30.5481 5.95965C29.6341 6.84715 29.1771 8.09892 29.1771 9.71496C29.1771 11.2913 29.6341 12.5298 30.5481 13.4305C31.4621 14.318 32.5615 14.7618 33.8464 14.7618C34.9458 14.7618 35.8532 14.4638 36.5685 13.8677C37.2838 13.2716 37.7739 12.5364 38.0388 11.6622L40.2245 12.3775C39.8801 13.6888 39.1515 14.7949 38.0388 15.6957C36.9394 16.5964 35.5419 17.0468 33.8464 17.0468Z" fill="#044D80"/>
<mask id="mask0_583_12720" style="mask-type:alpha" maskUnits="userSpaceOnUse" x="-1" y="0" width="22" height="19">
<path d="M-0.434814 0.0527344H20.747V18.881H-0.434814V0.0527344Z" fill="#044D80"/>
</mask>
<g mask="url(#mask0_583_12720)">
<path d="M10.0146 4.85026C13.8412 5.94162 17.9679 5.88099 21.757 4.69869C21.7945 3.45575 21.3818 2.2128 20.669 1.09113L20.2939 0.484813C20.1813 0.515129 20.0312 0.575765 19.9562 0.636396C16.5048 1.97028 12.6032 2.15218 8.96415 1.09113C6.4131 0.363556 3.63694 0.545447 1.23595 1.51555L0.485635 1.8187C0.523151 1.90965 0.59819 2.03091 0.673221 2.09154C1.12341 2.87975 1.49856 3.72859 1.76117 4.60774C4.38726 4.00143 7.31347 4.06205 10.0146 4.85026Z" fill="#044D80"/>
<path d="M20.7442 13.7631C17.2552 14.3391 13.6538 14.1572 10.1648 13.1568C7.35114 12.3383 4.19982 12.5202 1.4987 13.6115L0.673368 13.9753C0.7484 15.0667 1.12355 16.158 1.76131 17.1584L2.13647 17.7648C2.24901 17.7344 2.39908 17.6738 2.47411 17.6132C5.92554 16.2793 9.82716 16.0974 13.4662 17.1584C16.0172 17.886 18.8309 17.7344 21.1944 16.734L21.9447 16.4309C21.382 15.6123 21.0068 14.7029 20.7442 13.7631Z" fill="#E54747"/>
<path d="M1.12348 11.1871C4.3123 10.1261 7.87628 10.0351 11.1401 10.9749C14.1414 11.8238 17.3302 11.9753 20.3314 11.4297C20.2939 10.0655 20.519 8.73157 21.1193 7.39768C17.1801 8.33746 12.9409 8.24652 9.00175 7.12485C6.75082 6.4579 4.27478 6.45791 2.02385 7.06422C2.06137 8.36779 1.76125 9.70167 1.19852 11.0052C1.19852 11.0052 1.16099 11.0962 1.12348 11.1871Z" fill="#FF9D28"/>
</g>
</g>
<defs>
<clipPath id="clip0_583_12720">
<rect width="100" height="18.2609" fill="white"/>
</clipPath>
</defs>
</svg>
