<svg width="32" height="33" viewBox="0 0 32 33" fill="none" xmlns="http://www.w3.org/2000/svg">
<g clip-path="url(#clip0_583_21460)">
<path d="M16 32.9844C24.8366 32.9844 32 25.8209 32 16.9844C32 8.14782 24.8366 0.984375 16 0.984375C7.16344 0.984375 0 8.14782 0 16.9844C0 25.8209 7.16344 32.9844 16 32.9844Z" fill="#D80027"/>
<path d="M8.75625 10.7227L10.1375 14.9727H14.6062L10.9937 17.6039L12.375 21.8539L8.75625 19.2289L5.1375 21.8539L6.525 17.6039L2.90625 14.9727H7.375L8.75625 10.7227Z" fill="#FFDA44"/>
<path d="M18.9689 25.766L17.9127 24.466L16.3502 25.0723L17.2564 23.666L16.2002 22.3598L17.8189 22.791L18.7314 21.3848L18.8189 23.0598L20.4439 23.491L18.8752 24.091L18.9689 25.766Z" fill="#FFDA44"/>
<path d="M21.0689 21.9535L21.5689 20.3535L20.2002 19.3848L21.8752 19.3598L22.3689 17.7598L22.9127 19.3473L24.5877 19.3285L23.2439 20.3285L23.7814 21.916L22.4127 20.9473L21.0689 21.9535Z" fill="#FFDA44"/>
<path d="M23.8998 12.7283L23.1623 14.2346L24.3623 15.4033L22.7061 15.1658L21.9686 16.6658L21.6811 15.0158L20.0186 14.7783L21.5061 13.9971L21.2186 12.3408L22.4186 13.5096L23.8998 12.7283Z" fill="#FFDA44"/>
<path d="M19.0129 8.16602L18.8879 9.83477L20.4441 10.466L18.8129 10.866L18.6941 12.541L17.8129 11.116L16.1816 11.516L17.2629 10.2348L16.3754 8.81602L17.9316 9.44727L19.0129 8.16602Z" fill="#FFDA44"/>
</g>
<defs>
<clipPath id="clip0_583_21460">
<rect width="32" height="32" fill="white" transform="translate(0 0.984375)"/>
</clipPath>
</defs>
</svg>
