<svg width="159" height="41" viewBox="0 0 159 41" fill="none" xmlns="http://www.w3.org/2000/svg">
<g clip-path="url(#clip0_583_12741)">
<rect x="18.9714" y="8.98047" width="6.32386" height="5.97893" fill="#81BC08"/>
<rect x="12.6477" y="3" width="6.32386" height="5.97893" fill="#1A170E"/>
<rect x="6.32373" y="3" width="6.32386" height="5.97893" fill="#1A170E"/>
<rect y="3" width="6.32386" height="5.97893" fill="#1A170E"/>
<rect y="8.98047" width="6.32386" height="5.97893" fill="#1A170E"/>
<rect y="14.957" width="6.32386" height="5.97893" fill="#1A170E"/>
<rect y="20.9375" width="6.32386" height="5.97893" fill="#1A170E"/>
<rect y="26.916" width="6.32386" height="5.97893" fill="#1A170E"/>
<rect x="6.32373" y="26.916" width="6.32386" height="5.97893" fill="#1A170E"/>
<rect x="12.6477" y="26.916" width="6.32386" height="5.97893" fill="#1A170E"/>
<rect x="18.9714" y="20.9375" width="6.32386" height="5.97893" fill="#01A7F0"/>
<rect x="12.6477" y="14.957" width="6.32386" height="5.97893" fill="#F35425"/>
<path d="M145.687 13.3734V16.6777H142.188V25.6302C142.188 26.2487 142.312 26.6773 142.562 26.9161C142.812 27.1439 143.267 27.2579 143.929 27.2579H145.687V30.5622H143.213C141.466 30.5622 140.169 30.2095 139.323 29.5041C138.487 28.7988 138.069 27.7082 138.069 26.2324V16.6777H135.074V13.3734H138.069V8.68555H142.188V13.3734H145.687Z" fill="#1A170E"/>
<path d="M125.959 30.9525C124.266 30.9525 122.785 30.5781 121.515 29.8294C120.245 29.0698 119.252 28.0172 118.536 26.6716C117.831 25.326 117.478 23.7634 117.478 21.9837C117.478 20.2041 117.831 18.6415 118.536 17.2959C119.252 15.9395 120.245 14.8814 121.515 14.1218C122.785 13.3622 124.266 12.9824 125.959 12.9824C127.641 12.9824 129.116 13.3622 130.386 14.1218C131.667 14.8814 132.66 15.9395 133.365 17.2959C134.081 18.6415 134.439 20.2041 134.439 21.9837C134.439 23.7634 134.081 25.326 133.365 26.6716C132.66 28.0172 131.667 29.0698 130.386 29.8294C129.116 30.5781 127.641 30.9525 125.959 30.9525ZM125.959 27.518C127.272 27.518 128.319 27.0243 129.1 26.0368C129.882 25.0493 130.272 23.6983 130.272 21.9837C130.272 20.2692 129.882 18.9128 129.1 17.9144C128.319 16.9161 127.272 16.4169 125.959 16.4169C124.635 16.4169 123.582 16.9161 122.801 17.9144C122.02 18.9019 121.629 20.2584 121.629 21.9837C121.629 23.6983 122.02 25.0493 122.801 26.0368C123.582 27.0243 124.635 27.518 125.959 27.518Z" fill="#1A170E"/>
<path d="M115.296 6.30859V30.5617H111.195V6.30859H115.296Z" fill="#1A170E"/>
<path d="M104.113 30.5623V13.3736H108.215V30.5623H104.113ZM106.164 10.8181C105.459 10.8181 104.873 10.5956 104.406 10.1507C103.94 9.69492 103.706 9.13607 103.706 8.47413C103.706 7.81219 103.94 7.25876 104.406 6.81385C104.873 6.36894 105.459 6.14648 106.164 6.14648C106.859 6.14648 107.439 6.36894 107.906 6.81385C108.372 7.25876 108.606 7.81219 108.606 8.47413C108.606 9.13607 108.372 9.69492 107.906 10.1507C107.439 10.5956 106.859 10.8181 106.164 10.8181Z" fill="#1A170E"/>
<path d="M85.2148 37.3657V13.3731H89.2516V15.7658H89.3004C89.843 14.8543 90.5701 14.1707 91.4816 13.7149C92.3931 13.2591 93.4023 13.0312 94.5092 13.0312C95.985 13.0312 97.2763 13.4111 98.3831 14.1707C99.5008 14.9194 100.369 15.9666 100.987 17.3122C101.617 18.6469 101.932 20.1932 101.932 21.9512C101.932 23.7417 101.622 25.3097 101.004 26.6553C100.396 27.99 99.5334 29.0318 98.4157 29.7805C97.298 30.5293 95.9904 30.9037 94.4929 30.9037C93.3643 30.9037 92.3606 30.6595 91.4816 30.1712C90.6135 29.6829 89.9081 28.9504 89.3655 27.9738H89.3167V37.3657H85.2148ZM93.5325 27.4692C94.8021 27.4692 95.8276 26.9971 96.6089 26.053C97.3902 25.0981 97.7809 23.7308 97.7809 21.9512C97.7809 20.1824 97.3902 18.8205 96.6089 17.8656C95.8276 16.9107 94.8021 16.4332 93.5325 16.4332C92.1869 16.4332 91.1072 16.9378 90.2933 17.947C89.4903 18.9453 89.0888 20.2801 89.0888 21.9512C89.0888 23.6223 89.4903 24.9625 90.2933 25.9717C91.1072 26.97 92.1869 27.4692 93.5325 27.4692Z" fill="#1A170E"/>
<path d="M72.8109 30.5618L66.3489 13.373H70.6949L73.8364 22.3255C74.0643 23.0092 74.2813 23.6928 74.4875 24.3765C74.7045 25.0493 74.9161 25.722 75.1223 26.3948C75.3285 25.722 75.5347 25.0493 75.7408 24.3765C75.947 23.6928 76.1586 23.0092 76.3757 22.3255L79.4683 13.373H83.7655L77.3035 30.5618H72.8109Z" fill="#1A170E"/>
<path d="M60.7976 30.5623V13.3736H64.8994V30.5623H60.7976ZM62.8485 10.8181C62.1431 10.8181 61.5572 10.5956 61.0905 10.1507C60.6239 9.69492 60.3906 9.13607 60.3906 8.47413C60.3906 7.81219 60.6239 7.25876 61.0905 6.81385C61.5572 6.36894 62.1431 6.14648 62.8485 6.14648C63.543 6.14648 64.1235 6.36894 64.5902 6.81385C65.0568 7.25876 65.2901 7.81219 65.2901 8.47413C65.2901 9.13607 65.0568 9.69492 64.5902 10.1507C64.1235 10.5956 63.543 10.8181 62.8485 10.8181Z" fill="#1A170E"/>
<path d="M46.6032 30.5617H38.4158V6.30859H46.7823C49.1913 6.30859 51.2694 6.80234 53.0165 7.78982C54.7636 8.76646 56.1091 10.1609 57.0532 11.9731C57.9973 13.7744 58.4693 15.9176 58.4693 18.4026C58.4693 20.9093 57.9973 23.0742 57.0532 24.8972C56.1091 26.7094 54.7473 28.1093 52.9676 29.0967C51.1988 30.0734 49.0774 30.5617 46.6032 30.5617ZM42.713 26.883H46.3753C49.0123 26.883 50.9601 26.1451 52.2189 24.6693C53.4885 23.1827 54.1233 21.0938 54.1233 18.4026C54.1233 15.7331 53.4939 13.6659 52.2352 12.201C50.9764 10.7252 49.0665 9.98725 46.5056 9.98725H42.713V26.883Z" fill="#1A170E"/>
</g>
<defs>
<clipPath id="clip0_583_12741">
<rect width="159" height="40.4727" fill="white"/>
</clipPath>
</defs>
</svg>
