<svg width="32" height="33" viewBox="0 0 32 33" fill="none" xmlns="http://www.w3.org/2000/svg">
<g clip-path="url(#clip0_583_21450)">
<path d="M16 32.9844C24.8366 32.9844 32 25.8209 32 16.9844C32 8.14782 24.8366 0.984375 16 0.984375C7.16344 0.984375 0 8.14782 0 16.9844C0 25.8209 7.16344 32.9844 16 32.9844Z" fill="#F0F0F0"/>
<path d="M15.9999 0.984375C9.12049 0.984375 3.25581 5.32638 0.995117 11.4192H31.0048C28.7441 5.32638 22.8794 0.984375 15.9999 0.984375Z" fill="#D80027"/>
<path d="M15.9999 32.9846C22.8794 32.9846 28.7441 28.6426 31.0047 22.5498H0.995117C3.2558 28.6426 9.12049 32.9846 15.9999 32.9846Z" fill="black"/>
<path d="M21.5651 15.2448H17.3911C17.3911 14.4765 16.7682 13.8535 15.9998 13.8535C15.2314 13.8535 14.6085 14.4765 14.6085 15.2448H10.4346C10.4346 16.0133 11.1039 16.6361 11.8723 16.6361H11.8259C11.8259 17.4046 12.4488 18.0275 13.2172 18.0275C13.2172 18.7959 13.8401 19.4188 14.6085 19.4188H17.3911C18.1596 19.4188 18.7824 18.7959 18.7824 18.0275C19.5509 18.0275 20.1738 17.4046 20.1738 16.6361H20.1274C20.8958 16.6361 21.5651 16.0133 21.5651 15.2448Z" fill="#FF9811"/>
</g>
<defs>
<clipPath id="clip0_583_21450">
<rect width="32" height="32" fill="white" transform="translate(0 0.984375)"/>
</clipPath>
</defs>
</svg>
