<svg width="40" height="40" viewBox="0 0 40 40" fill="none" xmlns="http://www.w3.org/2000/svg">
<g clip-path="url(#clip0_583_12568)">
<path opacity="0.2" d="M10.9016 17.5H32.5V13.75C32.5 13.4185 32.3683 13.1005 32.1339 12.8661C31.8995 12.6317 31.5815 12.5 31.25 12.5H20L15.3328 9C15.1164 8.83772 14.8533 8.75 14.5828 8.75H6.25C5.91848 8.75 5.60054 8.8817 5.36612 9.11612C5.1317 9.35054 5 9.66848 5 10V32.5L9.71562 18.3547C9.7986 18.1058 9.95778 17.8893 10.1706 17.7359C10.3835 17.5825 10.6392 17.5 10.9016 17.5Z" fill="#0051F2"/>
<path d="M5 32.5V10C5 9.66848 5.1317 9.35054 5.36612 9.11612C5.60054 8.8817 5.91848 8.75 6.25 8.75H14.5828C14.8533 8.75 15.1164 8.83772 15.3328 9L20 12.5H31.25C31.5815 12.5 31.8995 12.6317 32.1339 12.8661C32.3683 13.1005 32.5 13.4185 32.5 13.75V17.5" stroke="#0051F2" stroke-width="2.5" stroke-linecap="round" stroke-linejoin="round"/>
<path d="M5 32.5L9.71563 18.3547C9.7986 18.1058 9.95778 17.8893 10.1706 17.7359C10.3835 17.5825 10.6392 17.5 10.9016 17.5H36.25C36.4481 17.5 36.6433 17.547 36.8196 17.6373C36.996 17.7275 37.1483 17.8584 37.2641 18.0191C37.3799 18.1798 37.4559 18.3657 37.4858 18.5615C37.5157 18.7573 37.4986 18.9574 37.4359 19.1453L32.9828 32.5H5Z" stroke="#0051F2" stroke-width="2.5" stroke-linecap="round" stroke-linejoin="round"/>
</g>
<defs>
<clipPath id="clip0_583_12568">
<rect width="40" height="40" fill="white"/>
</clipPath>
</defs>
</svg>
