<svg width="107" height="120" viewBox="0 0 107 120" fill="none" xmlns="http://www.w3.org/2000/svg">
<path d="M6 95.5L102 3V95.4786L54 119.187L6 95.5Z" fill="#F2F3F2"/>
<path d="M102 0H6V95.5L102 3V0Z" fill="white"/>
<path d="M7 1H101V95.4733L54 118.883L7 95.4733V1Z" stroke="#EBF1F5" stroke-width="2"/>
<path d="M4 64H102L107 72L102 80H4L0 72L4 64Z" fill="#FF492C"/>
<path d="M23.4746 54V39.4492H26.4824V51.4219H33.0938V54H23.4746ZM39.0461 54.2344C38.0044 54.2344 37.0962 54.0033 36.3215 53.541C35.5533 53.0788 34.9543 52.444 34.5246 51.6367C34.1014 50.8229 33.8898 49.8952 33.8898 48.8535C33.8898 47.8053 34.1047 46.8743 34.5344 46.0605C34.9706 45.2467 35.5695 44.6087 36.3313 44.1465C37.093 43.6842 37.9654 43.4531 38.9484 43.4531C39.9641 43.4531 40.8495 43.681 41.6047 44.1367C42.3664 44.5859 42.9589 45.2142 43.382 46.0215C43.8117 46.8223 44.0266 47.7467 44.0266 48.7949V49.5664H36.6926C36.7186 50.3281 36.9432 50.9368 37.3664 51.3926C37.7896 51.8483 38.3788 52.0762 39.134 52.0762C39.6939 52.0762 40.1594 51.9557 40.5305 51.7148C40.9081 51.474 41.162 51.1549 41.2922 50.7578H43.9191C43.7954 51.4414 43.5057 52.0436 43.05 52.5645C42.5943 53.0853 42.0214 53.4954 41.3313 53.7949C40.6411 54.0879 39.8794 54.2344 39.0461 54.2344ZM36.7121 47.7305H41.3117C41.2401 47.0859 40.9992 46.5781 40.5891 46.207C40.1854 45.8294 39.6581 45.6406 39.007 45.6406C38.3625 45.6406 37.8384 45.8294 37.4348 46.207C37.0311 46.5781 36.7902 47.0859 36.7121 47.7305ZM48.6801 54.1758C47.6514 54.1758 46.8018 53.9186 46.1313 53.4043C45.4672 52.89 45.1352 52.1185 45.1352 51.0898C45.1352 50.3151 45.3207 49.7096 45.6918 49.2734C46.0629 48.8307 46.5544 48.5085 47.1664 48.3066C47.7784 48.1048 48.4424 47.9714 49.1586 47.9062C50.1026 47.8086 50.7634 47.7109 51.141 47.6133C51.5186 47.5156 51.7074 47.3008 51.7074 46.9688V46.9004C51.7074 46.5228 51.5577 46.2135 51.2582 45.9727C50.9587 45.7318 50.5453 45.6113 50.018 45.6113C49.4841 45.6113 49.0512 45.735 48.7191 45.9824C48.3871 46.2298 48.2048 46.5521 48.1723 46.9492H45.4672C45.5323 45.888 45.9685 45.0449 46.7758 44.4199C47.5831 43.7884 48.6931 43.4727 50.1059 43.4727C51.5186 43.4727 52.6124 43.7884 53.3871 44.4199C54.1618 45.0449 54.5492 45.9076 54.5492 47.0078V54H51.7367V52.5449H51.6977C51.4242 53.0462 51.0499 53.4434 50.5746 53.7363C50.0993 54.0293 49.4678 54.1758 48.6801 54.1758ZM49.4809 52.1738C50.171 52.1738 50.7178 51.9915 51.1215 51.627C51.5251 51.2559 51.727 50.7904 51.727 50.2305V49.1953C51.5642 49.2865 51.294 49.3711 50.9164 49.4492C50.5388 49.5208 50.1189 49.5924 49.6566 49.6641C49.1618 49.7422 48.7419 49.8854 48.3969 50.0938C48.0583 50.2956 47.8891 50.6016 47.8891 51.0117C47.8891 51.3763 48.0323 51.6628 48.3188 51.8711C48.6117 52.0729 48.9991 52.1738 49.4809 52.1738ZM60.3941 54.2148C59.4957 54.2148 58.7112 53.9902 58.0406 53.541C57.3701 53.0918 56.8492 52.4635 56.4781 51.6562C56.1135 50.849 55.9313 49.9082 55.9313 48.834C55.9313 47.7793 56.1168 46.8483 56.4879 46.041C56.8655 45.2337 57.3863 44.6055 58.0504 44.1562C58.721 43.7005 59.4957 43.4727 60.3746 43.4727C61.0387 43.4727 61.6279 43.6094 62.1422 43.8828C62.6565 44.1497 63.0797 44.5599 63.4117 45.1133H63.4215V39.4492H66.2926V54H63.4605V52.418H63.4508C63.1513 53.0169 62.7346 53.4661 62.2008 53.7656C61.6734 54.0651 61.0712 54.2148 60.3941 54.2148ZM61.1363 51.8711C61.8655 51.8711 62.4514 51.5977 62.8941 51.0508C63.3369 50.4974 63.5582 49.7585 63.5582 48.834C63.5582 47.916 63.3369 47.1803 62.8941 46.627C62.4514 46.0736 61.8655 45.7969 61.1363 45.7969C60.4397 45.7969 59.8798 46.0638 59.4566 46.5977C59.04 47.125 58.8316 47.8704 58.8316 48.834C58.8316 49.7975 59.04 50.5462 59.4566 51.0801C59.8798 51.6074 60.4397 51.8711 61.1363 51.8711ZM72.8406 54.2344C71.799 54.2344 70.8908 54.0033 70.116 53.541C69.3478 53.0788 68.7488 52.444 68.3191 51.6367C67.896 50.8229 67.6844 49.8952 67.6844 48.8535C67.6844 47.8053 67.8992 46.8743 68.3289 46.0605C68.7651 45.2467 69.3641 44.6087 70.1258 44.1465C70.8875 43.6842 71.7599 43.4531 72.743 43.4531C73.7586 43.4531 74.644 43.681 75.3992 44.1367C76.1609 44.5859 76.7534 45.2142 77.1766 46.0215C77.6063 46.8223 77.8211 47.7467 77.8211 48.7949V49.5664H70.4871C70.5132 50.3281 70.7378 50.9368 71.1609 51.3926C71.5841 51.8483 72.1733 52.0762 72.9285 52.0762C73.4884 52.0762 73.9539 51.9557 74.325 51.7148C74.7026 51.474 74.9565 51.1549 75.0867 50.7578H77.7137C77.59 51.4414 77.3003 52.0436 76.8445 52.5645C76.3888 53.0853 75.8159 53.4954 75.1258 53.7949C74.4357 54.0879 73.674 54.2344 72.8406 54.2344ZM70.5066 47.7305H75.1063C75.0346 47.0859 74.7938 46.5781 74.3836 46.207C73.9799 45.8294 73.4526 45.6406 72.8016 45.6406C72.157 45.6406 71.6329 45.8294 71.2293 46.207C70.8257 46.5781 70.5848 47.0859 70.5066 47.7305ZM79.1641 54V43.6875H81.9375V45.4453H81.9668C82.1556 44.8268 82.4518 44.3678 82.8555 44.0684C83.2591 43.7689 83.8027 43.6191 84.4863 43.6191C84.6556 43.6191 84.8086 43.6224 84.9453 43.6289C85.0885 43.6354 85.2188 43.6387 85.3359 43.6387V46.0898C85.2318 46.0833 85.0592 46.0736 84.8184 46.0605C84.5775 46.0475 84.3366 46.041 84.0957 46.041C83.5033 46.041 83.0117 46.2428 82.6211 46.6465C82.237 47.0501 82.0449 47.6393 82.0449 48.4141V54H79.1641Z" fill="#151719"/>
<path d="M34.8259 100V97.9922L39.1462 94.4062C39.4275 94.1615 39.6957 93.9219 39.9509 93.6875C40.2061 93.4531 40.4119 93.2005 40.5681 92.9297C40.7244 92.6536 40.8025 92.3385 40.8025 91.9844C40.8025 91.5 40.6515 91.112 40.3494 90.8203C40.0473 90.5234 39.6436 90.375 39.1384 90.375C38.5864 90.375 38.1462 90.5573 37.8181 90.9219C37.49 91.2865 37.3259 91.7995 37.3259 92.4609H34.7478C34.7478 91.5859 34.9249 90.8281 35.2791 90.1875C35.6384 89.5469 36.1462 89.0521 36.8025 88.7031C37.464 88.349 38.2426 88.1719 39.1384 88.1719C39.9666 88.1719 40.7009 88.3203 41.3416 88.6172C41.9874 88.9141 42.4952 89.3385 42.865 89.8906C43.2348 90.4375 43.4197 91.0859 43.4197 91.8359C43.4197 92.3984 43.3129 92.9062 43.0994 93.3594C42.8858 93.8073 42.5837 94.237 42.1931 94.6484C41.8077 95.0547 41.3494 95.4792 40.8181 95.9219L38.6384 97.7734V97.7891H43.4587V100H34.8259ZM49.2128 100.188C48.192 100.188 47.3144 99.9453 46.58 99.4609C45.8456 98.9766 45.2805 98.2865 44.8847 97.3906C44.4941 96.4896 44.2987 95.4219 44.2987 94.1875C44.2987 92.9479 44.4941 91.8802 44.8847 90.9844C45.2805 90.0833 45.8456 89.3906 46.58 88.9062C47.3144 88.4167 48.192 88.1719 49.2128 88.1719C50.2389 88.1719 51.1191 88.4167 51.8534 88.9062C52.5878 89.3906 53.1503 90.0833 53.5409 90.9844C53.9316 91.8802 54.1269 92.9479 54.1269 94.1875C54.1269 95.4271 53.9316 96.4948 53.5409 97.3906C53.1503 98.2865 52.5878 98.9766 51.8534 99.4609C51.1191 99.9453 50.2389 100.188 49.2128 100.188ZM49.2128 97.9844C49.9159 97.9844 50.4706 97.6458 50.8769 96.9688C51.2831 96.2917 51.4862 95.3646 51.4862 94.1875C51.4862 93.0052 51.2831 92.0755 50.8769 91.3984C50.4706 90.7161 49.9159 90.375 49.2128 90.375C48.5097 90.375 47.955 90.7161 47.5487 91.3984C47.1477 92.0755 46.9472 93.0052 46.9472 94.1875C46.9472 95.3646 47.1477 96.2917 47.5487 96.9688C47.955 97.6458 48.5097 97.9844 49.2128 97.9844ZM54.9747 100V97.9922L59.295 94.4062C59.5763 94.1615 59.8445 93.9219 60.0997 93.6875C60.3549 93.4531 60.5606 93.2005 60.7169 92.9297C60.8731 92.6536 60.9513 92.3385 60.9513 91.9844C60.9513 91.5 60.8002 91.112 60.4981 90.8203C60.196 90.5234 59.7924 90.375 59.2872 90.375C58.7351 90.375 58.295 90.5573 57.9669 90.9219C57.6388 91.2865 57.4747 91.7995 57.4747 92.4609H54.8966C54.8966 91.5859 55.0736 90.8281 55.4278 90.1875C55.7872 89.5469 56.295 89.0521 56.9513 88.7031C57.6127 88.349 58.3914 88.1719 59.2872 88.1719C60.1153 88.1719 60.8497 88.3203 61.4903 88.6172C62.1361 88.9141 62.644 89.3385 63.0138 89.8906C63.3835 90.4375 63.5684 91.0859 63.5684 91.8359C63.5684 92.3984 63.4617 92.9062 63.2481 93.3594C63.0346 93.8073 62.7325 94.237 62.3419 94.6484C61.9565 95.0547 61.4981 95.4792 60.9669 95.9219L58.7872 97.7734V97.7891H63.6075V100H54.9747ZM68.8772 100.18C68.0178 100.18 67.26 100.023 66.6038 99.7109C65.9475 99.3984 65.4267 98.9557 65.0413 98.3828C64.661 97.8047 64.4475 97.125 64.4006 96.3438H67.0256C67.036 96.8385 67.2183 97.25 67.5725 97.5781C67.9267 97.901 68.3668 98.0625 68.8928 98.0625C69.4345 98.0625 69.8746 97.8828 70.2131 97.5234C70.5517 97.1589 70.7209 96.6901 70.7209 96.1172C70.7209 95.5391 70.5517 95.0651 70.2131 94.6953C69.8798 94.3255 69.4475 94.1406 68.9163 94.1406C68.4579 94.1406 68.0673 94.2396 67.7444 94.4375C67.4267 94.6302 67.2105 94.8958 67.0959 95.2344H64.5647L64.9084 88.3594H72.6584V90.5859H67.3772L67.1975 92.9219H67.2131C67.7548 92.3698 68.4944 92.0938 69.4319 92.0938C70.1298 92.0938 70.7756 92.2682 71.3694 92.6172C71.9683 92.9661 72.4501 93.4375 72.8147 94.0312C73.1793 94.625 73.3616 95.2943 73.3616 96.0391C73.3616 96.8464 73.1741 97.5625 72.7991 98.1875C72.4293 98.8073 71.9084 99.2943 71.2366 99.6484C70.5647 100.003 69.7782 100.18 68.8772 100.18Z" fill="#151719"/>
<path d="M34.4844 76.1172C33.5827 76.1172 32.8763 75.8975 32.3652 75.458C31.8574 75.0153 31.6035 74.4049 31.6035 73.627H32.8682C32.8747 74.0664 33.0195 74.4098 33.3027 74.6572C33.5892 74.9046 33.9863 75.0283 34.4941 75.0283C34.9466 75.0283 35.3112 74.9339 35.5879 74.7451C35.8646 74.5531 36.0029 74.2975 36.0029 73.9785C36.0029 73.7214 35.8988 73.513 35.6904 73.3535C35.4821 73.1908 35.1354 73.054 34.6504 72.9434L33.8691 72.7676C33.1432 72.6016 32.6077 72.3558 32.2627 72.0303C31.9176 71.7048 31.7451 71.2865 31.7451 70.7754C31.7451 70.3424 31.8558 69.9632 32.0771 69.6377C32.3018 69.3122 32.6143 69.0599 33.0146 68.8809C33.4183 68.6986 33.887 68.6074 34.4209 68.6074C35.2347 68.6074 35.8792 68.8141 36.3545 69.2275C36.833 69.641 37.082 70.209 37.1016 70.9316H35.876C35.8499 70.5475 35.7067 70.2464 35.4463 70.0283C35.1859 69.8102 34.8424 69.7012 34.416 69.7012C34.0124 69.7012 33.682 69.7956 33.4248 69.9844C33.1676 70.1732 33.0391 70.4157 33.0391 70.7119C33.0391 70.9561 33.14 71.1546 33.3418 71.3076C33.5469 71.4574 33.887 71.5859 34.3623 71.6934L35.0996 71.8643C35.8548 72.0303 36.4082 72.2777 36.7598 72.6064C37.1113 72.9352 37.2871 73.3665 37.2871 73.9004C37.2871 74.3529 37.1732 74.7451 36.9453 75.0771C36.7174 75.4092 36.3936 75.6663 35.9736 75.8486C35.5537 76.0277 35.0573 76.1172 34.4844 76.1172ZM41.1641 76.1172C40.5684 76.1172 40.0492 76.0065 39.6064 75.7852C39.167 75.5605 38.8252 75.2513 38.5811 74.8574C38.3402 74.4603 38.2197 74.0029 38.2197 73.4854V68.7246H39.4941V73.3828C39.4941 73.8451 39.6439 74.2259 39.9434 74.5254C40.2461 74.8249 40.653 74.9746 41.1641 74.9746C41.6751 74.9746 42.0804 74.8249 42.3799 74.5254C42.6794 74.2259 42.8291 73.8451 42.8291 73.3828V68.7246H44.1035V73.4854C44.1035 74.0029 43.9814 74.4603 43.7373 74.8574C43.4964 75.2513 43.1546 75.5605 42.7119 75.7852C42.2725 76.0065 41.7565 76.1172 41.1641 76.1172ZM45.29 76V68.7246H47.1455L48.5615 72.5479C48.6299 72.7497 48.7161 73.0133 48.8203 73.3389C48.9245 73.6611 49.0189 73.9639 49.1035 74.2471C49.1882 73.9639 49.2809 73.6611 49.3818 73.3389C49.486 73.0133 49.5723 72.7497 49.6406 72.5479L51.0322 68.7246H52.8975V76H51.6279V72.2891C51.6279 72.0319 51.6328 71.7161 51.6426 71.3418C51.6523 70.9674 51.6621 70.5947 51.6719 70.2236C51.5417 70.6338 51.418 71.026 51.3008 71.4004C51.1836 71.7715 51.0859 72.0677 51.0078 72.2891L49.6211 76H48.5664L47.1699 72.2891C47.0951 72.0775 46.999 71.7959 46.8818 71.4443C46.7679 71.0895 46.6475 70.7168 46.5205 70.3262C46.5303 70.6842 46.5384 71.0407 46.5449 71.3955C46.5547 71.7471 46.5596 72.0449 46.5596 72.2891V76H45.29ZM54.1084 76V68.7246H55.9639L57.3799 72.5479C57.4482 72.7497 57.5345 73.0133 57.6387 73.3389C57.7428 73.6611 57.8372 73.9639 57.9219 74.2471C58.0065 73.9639 58.0993 73.6611 58.2002 73.3389C58.3044 73.0133 58.3906 72.7497 58.459 72.5479L59.8506 68.7246H61.7158V76H60.4463V72.2891C60.4463 72.0319 60.4512 71.7161 60.4609 71.3418C60.4707 70.9674 60.4805 70.5947 60.4902 70.2236C60.36 70.6338 60.2363 71.026 60.1191 71.4004C60.002 71.7715 59.9043 72.0677 59.8262 72.2891L58.4395 76H57.3848L55.9883 72.2891C55.9134 72.0775 55.8174 71.7959 55.7002 71.4443C55.5863 71.0895 55.4658 70.7168 55.3389 70.3262C55.3486 70.6842 55.3568 71.0407 55.3633 71.3955C55.373 71.7471 55.3779 72.0449 55.3779 72.2891V76H54.1084ZM62.9268 76V68.7246H67.9805V69.8428H64.2158V71.7568H67.6973V72.8555H64.2158V74.8818H67.9805V76H62.9268ZM68.9131 76V68.7246H71.75C72.2839 68.7246 72.7445 68.819 73.1318 69.0078C73.5225 69.1966 73.8236 69.4652 74.0352 69.8135C74.2467 70.1618 74.3525 70.5736 74.3525 71.0488C74.3525 71.5436 74.2305 71.9684 73.9863 72.3232C73.7422 72.6781 73.4036 72.9434 72.9707 73.1191L74.4893 76H73.0684L71.7012 73.3535C71.6914 73.3535 71.68 73.3535 71.667 73.3535H70.2021V76H68.9131ZM70.2021 72.2891H71.6865C72.1162 72.2891 72.4564 72.1784 72.707 71.957C72.9577 71.7324 73.083 71.4297 73.083 71.0488C73.083 70.6712 72.9561 70.3717 72.7021 70.1504C72.4515 69.929 72.1097 69.8184 71.6768 69.8184H70.2021V72.2891Z" fill="white"/>
<path d="M42 0H65V17L53.5 24L42 17V0Z" fill="#FF492C"/>
<circle cx="54" cy="11" r="9" fill="#FF492C"/>
<path fill-rule="evenodd" clip-rule="evenodd" d="M48.9653 16.0297L48.9653 8.03331L51.2499 8.03331L51.2499 5.31055L54.0957 5.31055L54.0957 8.03331L56.9617 8.03331L56.9617 11.0005L59.7849 11.0005L59.7849 5.31055L59.7857 5.31055L59.7857 11.0005L59.7849 11.0005L59.7849 13.8455L56.9617 13.8455L56.9617 16.0297L48.9653 16.0297ZM56.9617 13.8455L51.2499 13.8455L51.2499 8.03331L54.0957 8.03331L54.0957 11.0005L56.9617 11.0005L56.9617 13.8455Z" fill="white"/>
</svg>
