<svg width="250" height="142" viewBox="0 0 250 142" fill="none" xmlns="http://www.w3.org/2000/svg">
<rect width="250" height="142" fill="white"/>
<path d="M21.9844 30.1875C20.9531 30.1875 20.0339 29.9349 19.2266 29.4297C18.4193 28.9245 17.7839 28.2214 17.3203 27.3203C16.862 26.4193 16.6328 25.375 16.6328 24.1875C16.6328 22.9948 16.862 21.9479 17.3203 21.0469C17.7839 20.1406 18.4193 19.4349 19.2266 18.9297C20.0339 18.4245 20.9531 18.1719 21.9844 18.1719C23.0208 18.1719 23.9427 18.4245 24.75 18.9297C25.5573 19.4349 26.1901 20.1406 26.6484 21.0469C27.112 21.9479 27.3438 22.9948 27.3438 24.1875C27.3438 25.375 27.112 26.4193 26.6484 27.3203C26.1901 28.2214 25.5573 28.9245 24.75 29.4297C23.9427 29.9349 23.0208 30.1875 21.9844 30.1875ZM21.9844 28.6016C22.6562 28.6016 23.2656 28.4323 23.8125 28.0938C24.3594 27.75 24.7943 27.25 25.1172 26.5938C25.4401 25.9323 25.6016 25.1302 25.6016 24.1875C25.6016 23.2396 25.4401 22.4349 25.1172 21.7734C24.7943 21.112 24.3594 20.612 23.8125 20.2734C23.2656 19.9297 22.6562 19.7578 21.9844 19.7578C21.3177 19.7578 20.7109 19.9297 20.1641 20.2734C19.6172 20.612 19.1823 21.112 18.8594 21.7734C18.5365 22.4349 18.375 23.2396 18.375 24.1875C18.375 25.1302 18.5365 25.9323 18.8594 26.5938C19.1823 27.25 19.6172 27.75 20.1641 28.0938C20.7109 28.4323 21.3177 28.6016 21.9844 28.6016ZM31.1525 30L28.0119 21.75H29.7775L31.4181 26.2734C31.5327 26.5964 31.6421 26.9193 31.7463 27.2422C31.8504 27.5651 31.9546 27.8854 32.0588 28.2031C32.1629 27.8854 32.2671 27.5651 32.3713 27.2422C32.4754 26.9193 32.5822 26.5964 32.6916 26.2734L34.3088 21.75H36.0509L32.9025 30H31.1525ZM40.2269 30.1875C39.4092 30.1875 38.706 30.0026 38.1175 29.6328C37.5342 29.263 37.0836 28.7552 36.7659 28.1094C36.4534 27.4583 36.2972 26.7188 36.2972 25.8906C36.2972 25.0521 36.4613 24.3073 36.7894 23.6562C37.1175 23.0052 37.5706 22.4948 38.1488 22.125C38.7269 21.75 39.3909 21.5625 40.1409 21.5625C40.9222 21.5625 41.5993 21.7448 42.1722 22.1094C42.7503 22.474 43.1982 22.9818 43.5159 23.6328C43.8336 24.2786 43.9925 25.026 43.9925 25.875V26.3203H37.9222C37.9534 27.0651 38.167 27.6667 38.5628 28.125C38.9639 28.5833 39.5264 28.8125 40.2503 28.8125C40.792 28.8125 41.2373 28.6901 41.5863 28.4453C41.9352 28.2005 42.167 27.8828 42.2816 27.4922H43.8675C43.7685 28.0234 43.5472 28.4922 43.2034 28.8984C42.8649 29.3047 42.4378 29.6224 41.9222 29.8516C41.4118 30.0755 40.8467 30.1875 40.2269 30.1875ZM37.9378 25.0703H42.3831C42.3154 24.4141 42.0836 23.8958 41.6878 23.5156C41.292 23.1302 40.7816 22.9375 40.1566 22.9375C39.5316 22.9375 39.0211 23.1302 38.6253 23.5156C38.2347 23.8958 38.0055 24.4141 37.9378 25.0703ZM45.2622 30V21.75H46.8403V23.0859H46.8716C47.0226 22.6328 47.2596 22.2812 47.5825 22.0312C47.9106 21.776 48.3377 21.6484 48.8638 21.6484C48.9888 21.6484 49.1033 21.6536 49.2075 21.6641C49.3117 21.6745 49.3976 21.6823 49.4653 21.6875V23.2266C49.4028 23.2109 49.2908 23.1953 49.1294 23.1797C48.9679 23.1589 48.7908 23.1484 48.5981 23.1484C48.1346 23.1484 47.7361 23.3099 47.4028 23.6328C47.0747 23.9557 46.9106 24.4531 46.9106 25.125V30H45.2622ZM52.8522 30.1328C52.0293 30.1328 51.347 29.9245 50.8053 29.5078C50.2636 29.0859 49.9928 28.4635 49.9928 27.6406C49.9928 27.0156 50.1465 26.5365 50.4538 26.2031C50.7663 25.8646 51.1699 25.6224 51.6647 25.4766C52.1647 25.3307 52.6933 25.224 53.2506 25.1562C53.7663 25.0938 54.1751 25.0417 54.4772 25C54.7793 24.9583 54.9928 24.8958 55.1178 24.8125C55.248 24.7292 55.3131 24.5859 55.3131 24.3828V24.3125C55.3131 23.9115 55.1673 23.5833 54.8756 23.3281C54.584 23.0677 54.1751 22.9375 53.6491 22.9375C53.123 22.9375 52.6933 23.0651 52.36 23.3203C52.0267 23.5703 51.8444 23.8854 51.8131 24.2656H50.1959C50.2324 23.4792 50.5631 22.8359 51.1881 22.3359C51.8131 21.8359 52.6413 21.5859 53.6725 21.5859C54.6881 21.5859 55.4876 21.8359 56.0709 22.3359C56.6543 22.8359 56.9459 23.5052 56.9459 24.3438V30H55.3209V28.8281H55.2897C55.1178 29.1615 54.8444 29.4635 54.4694 29.7344C54.0996 30 53.5605 30.1328 52.8522 30.1328ZM53.1881 28.8047C53.9173 28.8047 54.4538 28.6172 54.7975 28.2422C55.1465 27.862 55.3209 27.4193 55.3209 26.9141V25.9453C55.2116 26.0339 54.9642 26.1146 54.5788 26.1875C54.1933 26.2552 53.7819 26.3203 53.3444 26.3828C52.8913 26.4505 52.4928 26.5781 52.1491 26.7656C51.8053 26.9531 51.6334 27.2552 51.6334 27.6719C51.6334 28.026 51.7715 28.3047 52.0475 28.5078C52.3288 28.7057 52.709 28.8047 53.1881 28.8047ZM60.2938 18.3594V30H58.6453V18.3594H60.2938ZM63.6494 18.3594V30H62.0009V18.3594H63.6494ZM69.0091 33.2656V21.75H70.6263V22.9375H70.6497C70.9101 22.4844 71.2669 22.1458 71.72 21.9219C72.1731 21.6979 72.6679 21.5859 73.2044 21.5859C73.9127 21.5859 74.5351 21.7682 75.0716 22.1328C75.608 22.4922 76.0247 22.9948 76.3216 23.6406C76.6236 24.2812 76.7747 25.026 76.7747 25.875C76.7747 26.724 76.6263 27.4714 76.3294 28.1172C76.0325 28.7578 75.6158 29.2604 75.0794 29.625C74.5429 29.9844 73.9153 30.1641 73.1966 30.1641C72.6601 30.1641 72.1757 30.0469 71.7434 29.8125C71.3111 29.5781 70.957 29.2266 70.6809 28.7578H70.6575V33.2656H69.0091ZM72.8606 28.7422C73.5273 28.7422 74.0664 28.4974 74.4778 28.0078C74.8945 27.5182 75.1028 26.8073 75.1028 25.875C75.1028 24.9427 74.8945 24.2318 74.4778 23.7422C74.0664 23.2474 73.5273 23 72.8606 23C72.1575 23 71.595 23.263 71.1731 23.7891C70.7565 24.3099 70.5481 25.0052 70.5481 25.875C70.5481 26.7396 70.7565 27.4349 71.1731 27.9609C71.595 28.4818 72.1575 28.7422 72.8606 28.7422ZM78.0678 30V21.75H79.6459V23.0859H79.6772C79.8282 22.6328 80.0652 22.2812 80.3881 22.0312C80.7163 21.776 81.1433 21.6484 81.6694 21.6484C81.7944 21.6484 81.909 21.6536 82.0131 21.6641C82.1173 21.6745 82.2032 21.6823 82.2709 21.6875V23.2266C82.2084 23.2109 82.0965 23.1953 81.935 23.1797C81.7735 23.1589 81.5965 23.1484 81.4038 23.1484C80.9402 23.1484 80.5418 23.3099 80.2084 23.6328C79.8803 23.9557 79.7163 24.4531 79.7163 25.125V30H78.0678ZM86.7672 30.1875C85.9807 30.1875 85.2906 30.0052 84.6969 29.6406C84.1031 29.276 83.6396 28.7708 83.3063 28.125C82.9781 27.4792 82.8141 26.7344 82.8141 25.8906C82.8141 25.0365 82.9781 24.2865 83.3063 23.6406C83.6396 22.9896 84.1031 22.4818 84.6969 22.1172C85.2906 21.7474 85.9807 21.5625 86.7672 21.5625C87.5536 21.5625 88.2411 21.7474 88.8297 22.1172C89.4234 22.4818 89.8844 22.9896 90.2125 23.6406C90.5458 24.2865 90.7125 25.0365 90.7125 25.8906C90.7125 26.7344 90.5458 27.4792 90.2125 28.125C89.8844 28.7708 89.4234 29.276 88.8297 29.6406C88.2411 30.0052 87.5536 30.1875 86.7672 30.1875ZM86.7672 28.7656C87.4755 28.7656 88.0328 28.5052 88.4391 27.9844C88.8453 27.4635 89.0484 26.7656 89.0484 25.8906C89.0484 25.0052 88.8427 24.2995 88.4313 23.7734C88.025 23.2474 87.4703 22.9844 86.7672 22.9844C86.0641 22.9844 85.5068 23.2474 85.0953 23.7734C84.6891 24.2943 84.4859 25 84.4859 25.8906C84.4859 26.7708 84.6891 27.4714 85.0953 27.9922C85.5016 28.5078 86.0589 28.7656 86.7672 28.7656ZM95.615 33.375C94.6046 33.375 93.7791 33.151 93.1384 32.7031C92.4978 32.2552 92.1228 31.6276 92.0134 30.8203H93.6619C93.766 31.2214 93.9926 31.5234 94.3416 31.7266C94.6905 31.9297 95.115 32.0312 95.615 32.0312C96.2817 32.0312 96.8025 31.8516 97.1775 31.4922C97.5525 31.1328 97.74 30.6198 97.74 29.9531V28.7031H97.7322C97.4457 29.1823 97.0837 29.5365 96.6462 29.7656C96.214 29.9948 95.727 30.1094 95.1853 30.1094C94.4666 30.1094 93.839 29.9297 93.3025 29.5703C92.766 29.2057 92.3494 28.7057 92.0525 28.0703C91.7556 27.4297 91.6072 26.6901 91.6072 25.8516C91.6072 25.013 91.7556 24.2734 92.0525 23.6328C92.3546 22.9922 92.7739 22.4922 93.3103 22.1328C93.8468 21.7682 94.4692 21.5859 95.1775 21.5859C95.714 21.5859 96.2061 21.7005 96.6541 21.9297C97.102 22.1589 97.464 22.5182 97.74 23.0078H97.7478V21.75H99.3728V29.8906C99.3728 30.724 99.2035 31.3958 98.865 31.9062C98.5265 32.4167 98.0733 32.7891 97.5056 33.0234C96.9379 33.2578 96.3077 33.375 95.615 33.375ZM95.5212 28.6953C96.2244 28.6953 96.7843 28.4375 97.2009 27.9219C97.6228 27.401 97.8337 26.7083 97.8337 25.8438C97.8337 24.9792 97.6228 24.2891 97.2009 23.7734C96.7843 23.2526 96.2244 22.9922 95.5212 22.9922C94.8546 22.9922 94.3129 23.237 93.8962 23.7266C93.4848 24.2109 93.2791 24.9167 93.2791 25.8438C93.2791 26.7708 93.4848 27.4792 93.8962 27.9688C94.3129 28.4531 94.8546 28.6953 95.5212 28.6953ZM101.072 30V21.75H102.65V23.0859H102.682C102.833 22.6328 103.07 22.2812 103.393 22.0312C103.721 21.776 104.148 21.6484 104.674 21.6484C104.799 21.6484 104.913 21.6536 105.018 21.6641C105.122 21.6745 105.208 21.6823 105.275 21.6875V23.2266C105.213 23.2109 105.101 23.1953 104.939 23.1797C104.778 23.1589 104.601 23.1484 104.408 23.1484C103.945 23.1484 103.546 23.3099 103.213 23.6328C102.885 23.9557 102.721 24.4531 102.721 25.125V30H101.072ZM109.748 30.1875C108.93 30.1875 108.227 30.0026 107.639 29.6328C107.055 29.263 106.605 28.7552 106.287 28.1094C105.975 27.4583 105.818 26.7188 105.818 25.8906C105.818 25.0521 105.982 24.3073 106.311 23.6562C106.639 23.0052 107.092 22.4948 107.67 22.125C108.248 21.75 108.912 21.5625 109.662 21.5625C110.443 21.5625 111.121 21.7448 111.693 22.1094C112.272 22.474 112.719 22.9818 113.037 23.6328C113.355 24.2786 113.514 25.026 113.514 25.875V26.3203H107.443C107.475 27.0651 107.688 27.6667 108.084 28.125C108.485 28.5833 109.048 28.8125 109.772 28.8125C110.313 28.8125 110.759 28.6901 111.107 28.4453C111.456 28.2005 111.688 27.8828 111.803 27.4922H113.389C113.29 28.0234 113.068 28.4922 112.725 28.8984C112.386 29.3047 111.959 29.6224 111.443 29.8516C110.933 30.0755 110.368 30.1875 109.748 30.1875ZM107.459 25.0703H111.904C111.837 24.4141 111.605 23.8958 111.209 23.5156C110.813 23.1302 110.303 22.9375 109.678 22.9375C109.053 22.9375 108.542 23.1302 108.147 23.5156C107.756 23.8958 107.527 24.4141 107.459 25.0703ZM117.838 30.1953C117.208 30.1953 116.64 30.0938 116.135 29.8906C115.63 29.6875 115.221 29.3854 114.908 28.9844C114.601 28.5833 114.429 28.0859 114.393 27.4922H116.018C116.112 28.4193 116.708 28.8828 117.807 28.8828C118.328 28.8828 118.739 28.776 119.041 28.5625C119.349 28.349 119.502 28.0781 119.502 27.75C119.502 27.4688 119.393 27.2448 119.174 27.0781C118.955 26.9062 118.669 26.7812 118.315 26.7031L116.948 26.3984C115.369 26.0547 114.58 25.2682 114.58 24.0391C114.58 23.3099 114.869 22.7161 115.448 22.2578C116.031 21.7995 116.794 21.5703 117.737 21.5703C118.669 21.5703 119.434 21.8125 120.033 22.2969C120.638 22.776 120.95 23.4323 120.971 24.2656H119.393C119.388 23.8646 119.237 23.5339 118.94 23.2734C118.643 23.0078 118.25 22.875 117.76 22.875C117.291 22.875 116.919 22.9844 116.643 23.2031C116.367 23.4219 116.229 23.6901 116.229 24.0078C116.229 24.2891 116.333 24.5156 116.541 24.6875C116.755 24.8594 117.046 24.987 117.416 25.0703L118.823 25.3828C119.625 25.5599 120.216 25.8333 120.596 26.2031C120.976 26.5729 121.166 27.0573 121.166 27.6562C121.166 28.1823 121.02 28.6354 120.729 29.0156C120.442 29.3906 120.049 29.6823 119.549 29.8906C119.049 30.0938 118.479 30.1953 117.838 30.1953ZM125.522 30.1953C124.892 30.1953 124.324 30.0938 123.819 29.8906C123.314 29.6875 122.905 29.3854 122.592 28.9844C122.285 28.5833 122.113 28.0859 122.077 27.4922H123.702C123.795 28.4193 124.392 28.8828 125.491 28.8828C126.011 28.8828 126.423 28.776 126.725 28.5625C127.032 28.349 127.186 28.0781 127.186 27.75C127.186 27.4688 127.077 27.2448 126.858 27.0781C126.639 26.9062 126.353 26.7812 125.998 26.7031L124.631 26.3984C123.053 26.0547 122.264 25.2682 122.264 24.0391C122.264 23.3099 122.553 22.7161 123.131 22.2578C123.715 21.7995 124.478 21.5703 125.42 21.5703C126.353 21.5703 127.118 21.8125 127.717 22.2969C128.321 22.776 128.634 23.4323 128.655 24.2656H127.077C127.071 23.8646 126.92 23.5339 126.623 23.2734C126.327 23.0078 125.933 22.875 125.444 22.875C124.975 22.875 124.603 22.9844 124.327 23.2031C124.051 23.4219 123.912 23.6901 123.912 24.0078C123.912 24.2891 124.017 24.5156 124.225 24.6875C124.439 24.8594 124.73 24.987 125.1 25.0703L126.506 25.3828C127.308 25.5599 127.899 25.8333 128.28 26.2031C128.66 26.5729 128.85 27.0573 128.85 27.6562C128.85 28.1823 128.704 28.6354 128.412 29.0156C128.126 29.3906 127.733 29.6823 127.233 29.8906C126.733 30.0938 126.162 30.1953 125.522 30.1953Z" fill="black"/>
<rect x="16" y="44" width="218" height="16" rx="8" fill="#F6F6F6"/>
<rect x="16" y="44" width="143.257" height="16" rx="8" fill="#155BFF"/>
<path d="M19.377 79.1641C18.862 79.1641 18.3949 79.0798 17.9756 78.9111C17.5563 78.7425 17.2168 78.4873 16.957 78.1455C16.6973 77.7992 16.5514 77.3639 16.5195 76.8398H17.668C17.75 77.724 18.3105 78.166 19.3496 78.166C19.8509 78.166 20.2451 78.0612 20.5322 77.8516C20.8239 77.6419 20.9697 77.3776 20.9697 77.0586C20.9697 76.7852 20.8695 76.5664 20.6689 76.4023C20.4684 76.2383 20.2064 76.1198 19.8828 76.0469L18.7207 75.7734C17.3626 75.4544 16.6836 74.7708 16.6836 73.7227C16.6836 73.3125 16.793 72.9502 17.0117 72.6357C17.235 72.3167 17.5426 72.0684 17.9346 71.8906C18.3311 71.7083 18.7868 71.6172 19.3018 71.6172C19.8031 71.6172 20.252 71.7129 20.6484 71.9043C21.0495 72.0911 21.3662 72.3577 21.5986 72.7041C21.8356 73.0505 21.9609 73.4629 21.9746 73.9414H20.8398C20.8353 73.5586 20.694 73.2419 20.416 72.9912C20.138 72.7406 19.7666 72.6152 19.3018 72.6152C18.8597 72.6152 18.5065 72.7223 18.2422 72.9365C17.9779 73.1507 17.8457 73.4128 17.8457 73.7227C17.8457 73.9961 17.946 74.2171 18.1465 74.3857C18.347 74.5498 18.6204 74.6729 18.9668 74.7549L20.1289 75.0283C20.8216 75.1924 21.3298 75.4385 21.6533 75.7666C21.9769 76.0902 22.1387 76.5117 22.1387 77.0312C22.1387 77.4779 22.0179 77.8607 21.7764 78.1797C21.5348 78.4987 21.2044 78.7425 20.7852 78.9111C20.3704 79.0798 19.901 79.1641 19.377 79.1641ZM26.6539 71.7812V72.7793H25.1911V77.25C25.1911 77.528 25.248 77.724 25.362 77.8379C25.4804 77.9473 25.6878 78.002 25.984 78.002H26.6539V79H25.8746C24.6442 79 24.0289 78.4577 24.0289 77.373V72.7793H22.7438V71.7812H24.0289V69.8125H25.1911V71.7812H26.6539ZM30.1302 79.1094C29.4147 79.1094 28.8154 78.9248 28.3323 78.5557C27.8538 78.1865 27.6145 77.6419 27.6145 76.9219C27.6145 76.5072 27.6943 76.1699 27.8538 75.9102C28.0179 75.6504 28.2343 75.4476 28.5032 75.3018C28.7766 75.1514 29.0843 75.0374 29.4261 74.96C29.7724 74.8825 30.1256 74.821 30.4856 74.7754C30.9459 74.7116 31.3082 74.6637 31.5725 74.6318C31.8369 74.5999 32.0237 74.5475 32.1331 74.4746C32.247 74.4017 32.304 74.2741 32.304 74.0918V74.0234C32.304 73.6315 32.1627 73.3079 31.8802 73.0527C31.6022 72.7975 31.2102 72.6699 30.7044 72.6699C30.2031 72.6699 29.7906 72.793 29.4671 73.0391C29.1481 73.2806 28.9749 73.5814 28.9475 73.9414H27.7649C27.7877 73.4993 27.9244 73.1074 28.1751 72.7656C28.4257 72.4193 28.7675 72.1458 29.2005 71.9453C29.6334 71.7448 30.1347 71.6445 30.7044 71.6445C31.5475 71.6445 32.2151 71.8633 32.7073 72.3008C33.204 72.7337 33.4524 73.3079 33.4524 74.0234V79H32.304V77.9746H32.2766C32.1901 78.1478 32.0624 78.3232 31.8938 78.501C31.7252 78.6742 31.4973 78.82 31.2102 78.9385C30.9277 79.0524 30.5677 79.1094 30.1302 79.1094ZM30.2942 78.0703C30.7682 78.0703 31.1533 77.986 31.4495 77.8174C31.7457 77.6442 31.9622 77.4209 32.0989 77.1475C32.2356 76.874 32.304 76.5801 32.304 76.2656V75.3633C32.2174 75.4453 31.9873 75.5205 31.6136 75.5889C31.2399 75.6527 30.8457 75.7142 30.4309 75.7734C30.1529 75.8099 29.8886 75.8737 29.638 75.9648C29.3919 76.0514 29.1914 76.1768 29.0364 76.3408C28.8815 76.5003 28.804 76.7168 28.804 76.9902C28.804 77.3275 28.9361 77.5918 29.2005 77.7832C29.4693 77.9746 29.8339 78.0703 30.2942 78.0703ZM35.0351 79V71.7812H36.1425V72.916H36.1698C36.302 72.5423 36.5116 72.2415 36.7987 72.0137C37.0859 71.7858 37.455 71.6719 37.9062 71.6719C38.011 71.6719 38.1067 71.6764 38.1933 71.6855C38.2844 71.6947 38.3528 71.7038 38.3984 71.7129V72.875C38.3528 72.8613 38.2639 72.8454 38.1318 72.8271C38.0042 72.8044 37.856 72.793 37.6874 72.793C37.2864 72.793 36.9377 72.9342 36.6415 73.2168C36.3453 73.4993 36.1972 73.946 36.1972 74.5566V79H35.0351ZM42.7769 71.7812V72.7793H41.314V77.25C41.314 77.528 41.371 77.724 41.4849 77.8379C41.6034 77.9473 41.8108 78.002 42.107 78.002H42.7769V79H41.9976C40.7671 79 40.1519 78.4577 40.1519 77.373V72.7793H38.8668V71.7812H40.1519V69.8125H41.314V71.7812H42.7769ZM46.6906 79.1641C45.9842 79.1641 45.3804 79.0023 44.8791 78.6787C44.3824 78.3551 44.0018 77.9108 43.7375 77.3457C43.4732 76.776 43.341 76.1289 43.341 75.4043C43.341 74.6706 43.48 74.0189 43.758 73.4492C44.036 72.8796 44.4211 72.4329 44.9133 72.1094C45.4055 71.7812 45.9706 71.6172 46.6086 71.6172C47.2785 71.6172 47.8596 71.7767 48.3518 72.0957C48.8439 72.4147 49.2222 72.859 49.4865 73.4287C49.7554 73.9984 49.8898 74.6569 49.8898 75.4043V75.7256H44.4895C44.5168 76.432 44.7196 77.0062 45.0979 77.4482C45.4761 77.8903 46.007 78.1113 46.6906 78.1113C47.2056 78.1113 47.6249 77.9928 47.9484 77.7559C48.2766 77.5189 48.4953 77.2135 48.6047 76.8398H49.7668C49.6757 77.3001 49.4865 77.7057 49.1994 78.0566C48.9123 78.403 48.5523 78.6742 48.1193 78.8701C47.6909 79.0661 47.2147 79.1641 46.6906 79.1641ZM44.5031 74.7275H48.7277C48.6639 74.0941 48.4429 73.5905 48.0646 73.2168C47.6864 72.8431 47.201 72.6562 46.6086 72.6562C46.0161 72.6562 45.5331 72.8431 45.1594 73.2168C44.7857 73.5905 44.5669 74.0941 44.5031 74.7275ZM53.8377 79.1367C53.2134 79.1367 52.6642 78.9795 52.1903 78.665C51.7209 78.346 51.3563 77.9062 51.0965 77.3457C50.8368 76.7806 50.7069 76.1289 50.7069 75.3906C50.7069 74.6478 50.8368 73.9961 51.0965 73.4355C51.3563 72.8704 51.7209 72.4307 52.1903 72.1162C52.6642 71.8018 53.2134 71.6445 53.8377 71.6445C54.3071 71.6445 54.7424 71.7448 55.1434 71.9453C55.5444 72.1413 55.8612 72.4421 56.0936 72.8477H56.1073V68.8145H57.2694V79H56.1346V77.9062H56.1209C55.8612 78.321 55.533 78.6309 55.1366 78.8359C54.7401 79.0365 54.3071 79.1367 53.8377 79.1367ZM54.0155 78.0908C54.6854 78.0908 55.2163 77.8447 55.6082 77.3525C56.0047 76.8604 56.203 76.2064 56.203 75.3906C56.203 74.5749 56.0047 73.9209 55.6082 73.4287C55.2163 72.932 54.6854 72.6836 54.0155 72.6836C53.3911 72.6836 52.8784 72.9137 52.4774 73.374C52.0809 73.8343 51.8827 74.5065 51.8827 75.3906C51.8827 76.2747 52.0809 76.9469 52.4774 77.4072C52.8784 77.863 53.3911 78.0908 54.0155 78.0908Z" fill="black" fill-opacity="0.5"/>
<path d="M181.842 79.1641C181.176 79.1641 180.591 79.0046 180.085 78.6855C179.584 78.362 179.192 77.9176 178.909 77.3525C178.631 76.7874 178.492 76.138 178.492 75.4043C178.492 74.666 178.631 74.012 178.909 73.4424C179.192 72.8727 179.584 72.4261 180.085 72.1025C180.591 71.779 181.176 71.6172 181.842 71.6172C182.389 71.6172 182.879 71.7266 183.312 71.9453C183.744 72.1595 184.098 72.4557 184.371 72.834C184.649 73.2122 184.82 73.6452 184.884 74.1328H183.708C183.621 73.709 183.421 73.3604 183.106 73.0869C182.797 72.8089 182.375 72.6699 181.842 72.6699C181.163 72.6699 180.63 72.9183 180.242 73.415C179.859 73.9118 179.668 74.5749 179.668 75.4043C179.668 76.2246 179.859 76.8809 180.242 77.373C180.625 77.8652 181.158 78.1113 181.842 78.1113C182.384 78.1113 182.799 77.9792 183.086 77.7148C183.373 77.446 183.574 77.0905 183.688 76.6484H184.884C184.82 77.1224 184.649 77.5508 184.371 77.9336C184.098 78.3118 183.742 78.6126 183.305 78.8359C182.872 79.0547 182.384 79.1641 181.842 79.1641ZM189.03 79.1641C188.365 79.1641 187.779 79.0046 187.273 78.6855C186.772 78.362 186.38 77.9176 186.097 77.3525C185.819 76.7874 185.68 76.138 185.68 75.4043C185.68 74.666 185.819 74.012 186.097 73.4424C186.38 72.8727 186.772 72.4261 187.273 72.1025C187.779 71.779 188.365 71.6172 189.03 71.6172C189.7 71.6172 190.285 71.779 190.787 72.1025C191.288 72.4261 191.678 72.8727 191.956 73.4424C192.238 74.012 192.38 74.666 192.38 75.4043C192.38 76.138 192.238 76.7874 191.956 77.3525C191.678 77.9176 191.288 78.362 190.787 78.6855C190.285 79.0046 189.7 79.1641 189.03 79.1641ZM189.03 78.1113C189.714 78.1113 190.247 77.8652 190.63 77.373C191.012 76.8763 191.204 76.2201 191.204 75.4043C191.204 74.5794 191.01 73.9186 190.623 73.4219C190.24 72.9206 189.709 72.6699 189.03 72.6699C188.351 72.6699 187.818 72.9183 187.43 73.415C187.048 73.9118 186.856 74.5749 186.856 75.4043C186.856 76.2246 187.048 76.8809 187.43 77.373C187.813 77.8652 188.346 78.1113 189.03 78.1113ZM193.593 79V71.7812H194.728V72.9502C194.956 72.5264 195.259 72.2028 195.637 71.9795C196.015 71.7562 196.425 71.6445 196.867 71.6445C197.36 71.6445 197.79 71.7699 198.159 72.0205C198.529 72.2712 198.788 72.5788 198.939 72.9434C199.135 72.5742 199.429 72.2666 199.821 72.0205C200.213 71.7699 200.677 71.6445 201.215 71.6445C201.657 71.6445 202.058 71.7402 202.418 71.9316C202.783 72.123 203.072 72.4124 203.286 72.7998C203.505 73.1872 203.615 73.6771 203.615 74.2695V79H202.452V74.2695C202.452 73.709 202.295 73.3102 201.981 73.0732C201.666 72.8317 201.302 72.7109 200.887 72.7109C200.358 72.7109 199.941 72.8727 199.636 73.1963C199.335 73.5153 199.185 73.9186 199.185 74.4062V79H198.023V74.1465C198.023 73.7135 197.877 73.3672 197.585 73.1074C197.298 72.8431 196.936 72.7109 196.498 72.7109C196.198 72.7109 195.913 72.7816 195.644 72.9229C195.38 73.0641 195.165 73.276 195.001 73.5586C194.837 73.8366 194.755 74.1829 194.755 74.5977V79H193.593ZM205.197 81.8574V71.7812H206.332V72.8477H206.346C206.578 72.4421 206.899 72.1413 207.309 71.9453C207.72 71.7448 208.159 71.6445 208.629 71.6445C209.258 71.6445 209.807 71.8018 210.276 72.1162C210.746 72.4307 211.11 72.8704 211.37 73.4355C211.63 73.9961 211.76 74.6478 211.76 75.3906C211.76 76.1289 211.63 76.7806 211.37 77.3457C211.11 77.9062 210.746 78.346 210.276 78.665C209.807 78.9795 209.258 79.1367 208.629 79.1367C208.159 79.1367 207.731 79.0365 207.344 78.8359C206.956 78.6309 206.633 78.321 206.373 77.9062H206.359V81.8574H205.197ZM208.451 78.0908C209.075 78.0908 209.586 77.863 209.982 77.4072C210.383 76.9469 210.584 76.2747 210.584 75.3906C210.584 74.5065 210.383 73.8343 209.982 73.374C209.586 72.9137 209.075 72.6836 208.451 72.6836C207.781 72.6836 207.248 72.932 206.851 73.4287C206.46 73.9209 206.264 74.5749 206.264 75.3906C206.264 76.2064 206.46 76.8604 206.851 77.3525C207.248 77.8447 207.781 78.0908 208.451 78.0908ZM214.135 68.8145V79H212.973V68.8145H214.135ZM218.698 79.1641C217.992 79.1641 217.388 79.0023 216.887 78.6787C216.39 78.3551 216.01 77.9108 215.745 77.3457C215.481 76.776 215.349 76.1289 215.349 75.4043C215.349 74.6706 215.488 74.0189 215.766 73.4492C216.044 72.8796 216.429 72.4329 216.921 72.1094C217.413 71.7812 217.978 71.6172 218.616 71.6172C219.286 71.6172 219.867 71.7767 220.36 72.0957C220.852 72.4147 221.23 72.859 221.494 73.4287C221.763 73.9984 221.898 74.6569 221.898 75.4043V75.7256H216.497C216.525 76.432 216.727 77.0062 217.106 77.4482C217.484 77.8903 218.015 78.1113 218.698 78.1113C219.213 78.1113 219.633 77.9928 219.956 77.7559C220.284 77.5189 220.503 77.2135 220.612 76.8398H221.775C221.683 77.3001 221.494 77.7057 221.207 78.0566C220.92 78.403 220.56 78.6742 220.127 78.8701C219.699 79.0661 219.223 79.1641 218.698 79.1641ZM216.511 74.7275H220.736C220.672 74.0941 220.451 73.5905 220.072 73.2168C219.694 72.8431 219.209 72.6562 218.616 72.6562C218.024 72.6562 217.541 72.8431 217.167 73.2168C216.793 73.5905 216.575 74.0941 216.511 74.7275ZM226.235 71.7812V72.7793H224.772V77.25C224.772 77.528 224.829 77.724 224.943 77.8379C225.062 77.9473 225.269 78.002 225.565 78.002H226.235V79H225.456C224.225 79 223.61 78.4577 223.61 77.373V72.7793H222.325V71.7812H223.61V69.8125H224.772V71.7812H226.235ZM230.149 79.1641C229.443 79.1641 228.839 79.0023 228.337 78.6787C227.841 78.3551 227.46 77.9108 227.196 77.3457C226.931 76.776 226.799 76.1289 226.799 75.4043C226.799 74.6706 226.938 74.0189 227.216 73.4492C227.494 72.8796 227.879 72.4329 228.372 72.1094C228.864 71.7812 229.429 71.6172 230.067 71.6172C230.737 71.6172 231.318 71.7767 231.81 72.0957C232.302 72.4147 232.68 72.859 232.945 73.4287C233.214 73.9984 233.348 74.6569 233.348 75.4043V75.7256H227.948C227.975 76.432 228.178 77.0062 228.556 77.4482C228.934 77.8903 229.465 78.1113 230.149 78.1113C230.664 78.1113 231.083 77.9928 231.407 77.7559C231.735 77.5189 231.954 77.2135 232.063 76.8398H233.225C233.134 77.3001 232.945 77.7057 232.658 78.0566C232.371 78.403 232.011 78.6742 231.578 78.8701C231.149 79.0661 230.673 79.1641 230.149 79.1641ZM227.961 74.7275H232.186C232.122 74.0941 231.901 73.5905 231.523 73.2168C231.145 72.8431 230.659 72.6562 230.067 72.6562C229.474 72.6562 228.991 72.8431 228.618 73.2168C228.244 73.5905 228.025 74.0941 227.961 74.7275Z" fill="black" fill-opacity="0.5"/>
<line x1="16" y1="95.5" x2="234" y2="95.5" stroke="#E9E9E9"/>
<path d="M21.9922 122.188C20.9661 122.188 20.0547 121.93 19.2578 121.414C18.4609 120.898 17.8359 120.19 17.3828 119.289C16.9297 118.383 16.7031 117.349 16.7031 116.188C16.7031 115.016 16.9297 113.979 17.3828 113.078C17.8359 112.172 18.4609 111.461 19.2578 110.945C20.0547 110.43 20.9661 110.172 21.9922 110.172C23.0234 110.172 23.9349 110.43 24.7266 110.945C25.5234 111.461 26.1484 112.172 26.6016 113.078C27.0547 113.979 27.2812 115.016 27.2812 116.188C27.2812 117.349 27.0547 118.383 26.6016 119.289C26.1484 120.19 25.5234 120.898 24.7266 121.414C23.9349 121.93 23.0234 122.188 21.9922 122.188ZM21.9922 120.875C22.6953 120.875 23.3411 120.695 23.9297 120.336C24.5182 119.971 24.9896 119.44 25.3438 118.742C25.6979 118.044 25.875 117.193 25.875 116.188C25.875 115.177 25.6979 114.323 25.3438 113.625C24.9896 112.922 24.5182 112.391 23.9297 112.031C23.3411 111.667 22.6953 111.484 21.9922 111.484C21.2891 111.484 20.6432 111.667 20.0547 112.031C19.4661 112.391 18.9948 112.922 18.6406 113.625C18.2865 114.323 18.1094 115.177 18.1094 116.188C18.1094 117.193 18.2865 118.044 18.6406 118.742C18.9948 119.44 19.4661 119.971 20.0547 120.336C20.6432 120.695 21.2891 120.875 21.9922 120.875ZM29.9769 117.172V122H28.6488V113.75H29.9456V114.961C30.2321 114.492 30.581 114.148 30.9925 113.93C31.4092 113.706 31.8779 113.594 32.3988 113.594C32.956 113.594 33.4639 113.716 33.9222 113.961C34.3805 114.201 34.7451 114.562 35.0159 115.047C35.292 115.531 35.43 116.141 35.43 116.875V122H34.1019V116.969C34.1019 116.255 33.93 115.719 33.5863 115.359C33.2477 114.995 32.7685 114.812 32.1488 114.812C31.5498 114.812 31.0368 114.997 30.6097 115.367C30.1878 115.737 29.9769 116.339 29.9769 117.172ZM40.165 111.609V110.359H49.1494V111.609H45.3681V122H43.9619V111.609H40.165ZM48.72 122V113.75H49.9856V115.047H50.0169C50.1679 114.62 50.4075 114.276 50.7356 114.016C51.0637 113.755 51.4856 113.625 52.0012 113.625C52.121 113.625 52.2304 113.63 52.3294 113.641C52.4335 113.651 52.5117 113.661 52.5637 113.672V115C52.5117 114.984 52.4101 114.966 52.2591 114.945C52.1132 114.919 51.944 114.906 51.7512 114.906C51.2929 114.906 50.8945 115.068 50.5559 115.391C50.2174 115.714 50.0481 116.224 50.0481 116.922V122H48.72ZM55.8219 122.125C55.0042 122.125 54.3193 121.914 53.7672 121.492C53.2203 121.07 52.9469 120.448 52.9469 119.625C52.9469 119.151 53.038 118.766 53.2203 118.469C53.4078 118.172 53.6552 117.94 53.9625 117.773C54.275 117.602 54.6266 117.471 55.0172 117.383C55.413 117.294 55.8167 117.224 56.2281 117.172C56.7542 117.099 57.1682 117.044 57.4703 117.008C57.7724 116.971 57.9859 116.911 58.1109 116.828C58.2411 116.745 58.3063 116.599 58.3063 116.391V116.312C58.3063 115.865 58.1448 115.495 57.8219 115.203C57.5042 114.911 57.0563 114.766 56.4781 114.766C55.9052 114.766 55.4339 114.906 55.0641 115.188C54.6995 115.464 54.5016 115.807 54.4703 116.219H53.1188C53.1448 115.714 53.301 115.266 53.5875 114.875C53.874 114.479 54.2646 114.167 54.7594 113.938C55.2542 113.708 55.8271 113.594 56.4781 113.594C57.4417 113.594 58.2047 113.844 58.7672 114.344C59.3349 114.839 59.6188 115.495 59.6188 116.312V122H58.3063V120.828H58.275C58.176 121.026 58.0302 121.227 57.8375 121.43C57.6448 121.628 57.3844 121.794 57.0563 121.93C56.7333 122.06 56.3219 122.125 55.8219 122.125ZM56.0094 120.938C56.551 120.938 56.9911 120.841 57.3297 120.648C57.6682 120.451 57.9156 120.195 58.0719 119.883C58.2281 119.57 58.3063 119.234 58.3063 118.875V117.844C58.2073 117.938 57.9443 118.023 57.5172 118.102C57.0901 118.174 56.6396 118.245 56.1656 118.312C55.8479 118.354 55.5458 118.427 55.2594 118.531C54.9781 118.63 54.749 118.773 54.5719 118.961C54.3948 119.143 54.3063 119.391 54.3063 119.703C54.3063 120.089 54.4573 120.391 54.7594 120.609C55.0667 120.828 55.4833 120.938 56.0094 120.938ZM64.6738 122.188C63.9133 122.188 63.2441 122.005 62.6659 121.641C62.093 121.271 61.6451 120.763 61.3222 120.117C61.0045 119.471 60.8456 118.729 60.8456 117.891C60.8456 117.047 61.0045 116.299 61.3222 115.648C61.6451 114.997 62.093 114.487 62.6659 114.117C63.2441 113.747 63.9133 113.562 64.6738 113.562C65.2988 113.562 65.8586 113.688 66.3534 113.938C66.8482 114.182 67.2519 114.521 67.5644 114.953C67.8821 115.385 68.0774 115.88 68.1503 116.438H66.8066C66.7076 115.953 66.4784 115.555 66.1191 115.242C65.7649 114.924 65.2831 114.766 64.6738 114.766C63.8977 114.766 63.2883 115.049 62.8456 115.617C62.4081 116.185 62.1894 116.943 62.1894 117.891C62.1894 118.828 62.4081 119.578 62.8456 120.141C63.2831 120.703 63.8925 120.984 64.6738 120.984C65.2935 120.984 65.7675 120.833 66.0956 120.531C66.4238 120.224 66.6529 119.818 66.7831 119.312H68.1503C68.0774 119.854 67.8821 120.344 67.5644 120.781C67.2519 121.214 66.8456 121.557 66.3456 121.812C65.8508 122.062 65.2935 122.188 64.6738 122.188ZM69.3225 122V110.359H70.6506V117.461H70.6662L74.5022 113.75H76.2209L72.5881 117.281L76.4866 122H74.7991L71.5725 118.117L70.6506 118.953V122H69.3225ZM79.4322 118.875V118C79.4322 117.422 79.5103 116.979 79.6666 116.672C79.828 116.365 80.0468 116.109 80.3228 115.906C80.6041 115.698 80.9218 115.466 81.2759 115.211C81.7186 114.888 82.0259 114.56 82.1978 114.227C82.3749 113.888 82.4634 113.547 82.4634 113.203C82.4634 112.646 82.2733 112.208 81.8931 111.891C81.5129 111.568 80.9921 111.406 80.3306 111.406C79.6067 111.406 79.0442 111.617 78.6431 112.039C78.2421 112.456 78.0416 113.042 78.0416 113.797H76.6431C76.6431 113.068 76.7968 112.432 77.1041 111.891C77.4114 111.349 77.841 110.927 78.3931 110.625C78.9504 110.323 79.5962 110.172 80.3306 110.172C81.0181 110.172 81.6223 110.302 82.1431 110.562C82.6692 110.818 83.0806 111.174 83.3775 111.633C83.6744 112.086 83.8228 112.609 83.8228 113.203C83.8228 114.339 83.2655 115.292 82.1509 116.062C81.802 116.302 81.5285 116.513 81.3306 116.695C81.1327 116.872 80.9921 117.068 80.9087 117.281C80.8306 117.495 80.7916 117.776 80.7916 118.125V118.875H79.4322ZM80.1119 122.133C79.841 122.133 79.6093 122.039 79.4166 121.852C79.2291 121.659 79.1353 121.427 79.1353 121.156C79.1353 120.88 79.2291 120.648 79.4166 120.461C79.6093 120.273 79.841 120.18 80.1119 120.18C80.3879 120.18 80.6197 120.273 80.8072 120.461C80.9947 120.648 81.0884 120.88 81.0884 121.156C81.0884 121.427 80.9947 121.659 80.8072 121.852C80.6197 122.039 80.3879 122.133 80.1119 122.133Z" fill="black"/>
<path d="M224 124C218.477 124 214 119.523 214 114C214 108.477 218.477 104 224 104C229.523 104 234 108.477 234 114C234 119.523 229.523 124 224 124ZM223.003 118L230.074 110.929L228.66 109.515L223.003 115.172L220.174 112.343L218.76 113.757L223.003 118Z" fill="#10CF20"/>
</svg>
