<svg xmlns="http://www.w3.org/2000/svg" fill="none" viewBox="0 0 22.032 22.107843137254903" style="max-height: 500px" width="22.032" height="22.107843137254903">
<g clip-path="url(#clip0_583_28792)">
<path fill="black" d="M21.7508 0H2.83594V3.05109C1.89946 2.90907 0.951513 2.83728 0 2.83728V8.51174C1.73875 8.51174 3.46048 8.85421 5.06688 9.5196C6.67328 10.185 8.13289 11.1603 9.36238 12.3898C10.5919 13.6192 11.5671 15.0789 12.2325 16.6853C12.8979 18.2917 13.2404 20.0134 13.2404 21.7521H18.9149C18.9149 20.8002 18.843 19.8518 18.7008 18.9149H21.7508V0ZM16.0763 11.786V5.67446H9.96394C11.1982 6.43939 12.3432 7.34572 13.3748 8.37732C14.4058 9.40831 15.3117 10.5526 16.0763 11.786Z" clip-rule="evenodd" fill-rule="evenodd"/>
</g>
<path fill="black" d="M30.4531 19.7251V1.45333H37.9706C39.1192 1.45333 40.1285 1.68825 40.9985 2.15809C41.886 2.61054 42.5734 3.2544 43.0606 4.08968C43.5653 4.92496 43.8176 5.91686 43.8176 7.06537V7.4308C43.8176 8.56191 43.5566 9.5538 43.0345 10.4065C42.5299 11.2418 41.8338 11.8943 40.9463 12.3642C40.0762 12.8166 39.0844 13.0428 37.9706 13.0428H33.8987V19.7251H30.4531ZM33.8987 9.91054H37.6313C38.4492 9.91054 39.1105 9.68432 39.6151 9.23187C40.1198 8.77943 40.3721 8.16167 40.3721 7.37859V7.11757C40.3721 6.3345 40.1198 5.71674 39.6151 5.26429C39.1105 4.81185 38.4492 4.58563 37.6313 4.58563H33.8987V9.91054Z"/>
<path fill="black" d="M50.3634 20.0905C49.0757 20.0905 47.9185 19.8295 46.8918 19.3074C45.8651 18.7854 45.0559 18.0284 44.4643 17.0365C43.8726 16.0446 43.5768 14.8526 43.5768 13.4605V13.0428C43.5768 11.6507 43.8726 10.4587 44.4643 9.4668C45.0559 8.4749 45.8651 7.71793 46.8918 7.19588C47.9185 6.67383 49.0757 6.4128 50.3634 6.4128C51.6511 6.4128 52.8084 6.67383 53.8351 7.19588C54.8618 7.71793 55.6709 8.4749 56.2626 9.4668C56.8542 10.4587 57.1501 11.6507 57.1501 13.0428V13.4605C57.1501 14.8526 56.8542 16.0446 56.2626 17.0365C55.6709 18.0284 54.8618 18.7854 53.8351 19.3074C52.8084 19.8295 51.6511 20.0905 50.3634 20.0905ZM50.3634 17.167C51.3727 17.167 52.208 16.8451 52.8693 16.2012C53.5305 15.54 53.8612 14.6003 53.8612 13.3822V13.1211C53.8612 11.903 53.5305 10.972 52.8693 10.3282C52.2254 9.66691 51.3901 9.33628 50.3634 9.33628C49.3541 9.33628 48.5188 9.66691 47.8576 10.3282C47.1963 10.972 46.8657 11.903 46.8657 13.1211V13.3822C46.8657 14.6003 47.1963 15.54 47.8576 16.2012C48.5188 16.8451 49.3541 17.167 50.3634 17.167Z"/>
<path fill="black" d="M58.3587 19.7251V6.77824H61.6477V19.7251H58.3587ZM60.0032 5.26429C59.4115 5.26429 58.9069 5.07287 58.4893 4.69004C58.089 4.3072 57.8889 3.80255 57.8889 3.17609C57.8889 2.54963 58.089 2.04498 58.4893 1.66215C58.9069 1.27931 59.4115 1.08789 60.0032 1.08789C60.6123 1.08789 61.1169 1.27931 61.5171 1.66215C61.9174 2.04498 62.1175 2.54963 62.1175 3.17609C62.1175 3.80255 61.9174 4.3072 61.5171 4.69004C61.1169 5.07287 60.6123 5.26429 60.0032 5.26429Z"/>
<path fill="black" d="M63.465 19.7251V6.77824H66.7018V8.4749H67.1716C67.3804 8.02246 67.772 7.59612 68.3462 7.19588C68.9205 6.77824 69.7906 6.56942 70.9565 6.56942C71.9658 6.56942 72.8445 6.80434 73.5928 7.27419C74.3585 7.72663 74.9501 8.36179 75.3678 9.17967C75.7854 9.98014 75.9942 10.9198 75.9942 11.9987V19.7251H72.7053V12.2598C72.7053 11.2853 72.4617 10.5544 71.9745 10.0672C71.5046 9.57991 70.826 9.33628 69.9385 9.33628C68.9292 9.33628 68.1461 9.67562 67.5892 10.3543C67.0324 11.0155 66.754 11.9465 66.754 13.1472V19.7251H63.465Z"/>
<path fill="black" d="M82.3251 19.7251C81.4724 19.7251 80.7764 19.4641 80.2369 18.942C79.7149 18.4026 79.4538 17.6891 79.4538 16.8016V9.4929H76.2171V6.77824H79.4538V2.75845H82.7428V6.77824H86.2927V9.4929H82.7428V16.2273C82.7428 16.7494 82.9864 17.0104 83.4736 17.0104H85.9795V19.7251H82.3251Z"/>
<path fill="black" d="M92.883 20.0905C91.5952 20.0905 90.4554 19.8208 89.4635 19.2813C88.489 18.7245 87.7234 17.9501 87.1665 16.9582C86.6271 15.9489 86.3573 14.7656 86.3573 13.4083V13.095C86.3573 11.7377 86.6271 10.5631 87.1665 9.57121C87.706 8.56191 88.4629 7.78753 89.4374 7.24808C90.4119 6.69123 91.543 6.4128 92.8308 6.4128C94.1011 6.4128 95.2061 6.69993 96.1458 7.27419C97.0855 7.83104 97.8163 8.61411 98.3384 9.62341C98.8604 10.6153 99.1215 11.7725 99.1215 13.095V14.2175H89.6985C89.7333 15.1049 90.0639 15.8271 90.6904 16.384C91.3168 16.9408 92.0825 17.2192 92.9874 17.2192C93.9097 17.2192 94.5883 17.0191 95.0234 16.6189C95.4584 16.2186 95.789 15.7749 96.0153 15.2877L98.7038 16.6972C98.4602 17.1496 98.1035 17.6456 97.6336 18.185C97.1812 18.7071 96.5721 19.1595 95.8064 19.5424C95.0408 19.9078 94.0663 20.0905 92.883 20.0905ZM89.7246 11.7638H95.7803C95.7107 11.0155 95.4062 10.4152 94.8668 9.96274C94.3447 9.5103 93.6573 9.28408 92.8047 9.28408C91.9172 9.28408 91.2124 9.5103 90.6904 9.96274C90.1683 10.4152 89.8464 11.0155 89.7246 11.7638Z"/>
<path fill="black" d="M100.222 19.7251V6.77824H103.458V8.23998H103.928C104.12 7.71793 104.433 7.33509 104.868 7.09147C105.32 6.84784 105.842 6.72603 106.434 6.72603H108V9.64951H106.382C105.547 9.64951 104.859 9.87573 104.32 10.3282C103.78 10.7632 103.511 11.4419 103.511 12.3642V19.7251H100.222Z"/>
<defs>
<clipPath id="clip0_583_28792">
<rect fill="white" height="21.7521" width="21.7521"/>
</clipPath>
</defs>
</svg>