<svg width="123" height="26" viewBox="0 0 123 26" fill="none" xmlns="http://www.w3.org/2000/svg">
<path d="M38.904 23V3.4H45.624C50.188 3.4 53.212 5.752 53.212 9.308C53.212 12.864 50.188 15.216 45.624 15.216H42.768V23H38.904ZM42.768 12.052H45.624C47.892 12.052 49.348 10.988 49.348 9.308C49.348 7.628 47.892 6.564 45.624 6.564H42.768V12.052ZM53.8503 23V9H57.6303V11.94C58.2183 10.036 59.2543 9 60.7383 9H63.3143V12.164H61.0183C58.5263 12.164 57.6303 13.48 57.6303 17.176V23H53.8503ZM64.1346 23V9H67.9146V23H64.1346ZM63.7986 7.04V3.4H68.2786V7.04H63.7986ZM88.081 14.796C88.081 12.78 87.325 11.716 85.925 11.716C84.133 11.716 82.957 13.48 82.957 16.196V23H79.177V14.796C79.177 12.78 78.421 11.716 77.021 11.716C75.229 11.716 74.053 13.48 74.053 16.196V23H70.273V9H74.053V11.324C74.921 9.588 76.461 8.552 78.449 8.552C80.521 8.552 81.921 9.672 82.565 11.744C83.461 9.784 85.197 8.552 87.353 8.552C90.237 8.552 91.861 10.736 91.861 14.628V23H88.081V14.796ZM100.589 23.448C96.0811 23.448 93.0291 20.452 93.0291 15.972C93.0291 11.632 95.9691 8.552 100.057 8.552C104.173 8.552 107.057 11.632 107.057 16.056V17.12H96.9211C96.9211 18.996 98.3211 20.284 100.365 20.284C101.765 20.284 102.829 19.668 103.249 18.604L107.057 18.884C106.637 21.628 104.089 23.448 100.589 23.448ZM96.9211 14.376H103.165C103.165 12.78 101.905 11.716 100.057 11.716C98.2091 11.716 96.9211 12.808 96.9211 14.376ZM117.262 23L114.434 19.108L111.606 23H107.07L112.166 16L107.07 9H111.606L114.434 12.892L117.262 9H121.798L116.702 16L121.798 23H117.262Z" fill="black" fill-opacity="0.7"/>
<path d="M7.27561 24.4403H2C0.895431 24.4403 0 23.5449 0 22.4403V16.9421C0 16.4823 0.158391 16.0366 0.448509 15.68L12.6034 0.737909C12.9832 0.271028 13.5531 0 14.1549 0H20.1975C21.3021 0 22.1975 0.895429 22.1975 2V9.9403C22.1975 11.0449 23.093 11.9403 24.1975 11.9403H29C30.1046 11.9403 31 12.8357 31 13.9403V23C31 24.1046 30.1046 25 29 25H20.3704C19.2658 25 18.3704 24.1046 18.3704 23V17.5796C18.3704 15.6959 16.0041 14.8567 14.8173 16.3195L8.82871 23.7004C8.44895 24.1685 7.87835 24.4403 7.27561 24.4403Z" fill="black" fill-opacity="0.7"/>
</svg>
