<svg width="144" height="34" viewBox="0 0 144 34" fill="none" xmlns="http://www.w3.org/2000/svg">
<path d="M38.904 27V7.4H45.624C50.188 7.4 53.212 9.752 53.212 13.308C53.212 16.864 50.188 19.216 45.624 19.216H42.768V27H38.904ZM42.768 16.052H45.624C47.892 16.052 49.348 14.988 49.348 13.308C49.348 11.628 47.892 10.564 45.624 10.564H42.768V16.052ZM53.8503 27V13H57.6303V15.94C58.2183 14.036 59.2543 13 60.7383 13H63.3143V16.164H61.0183C58.5263 16.164 57.6303 17.48 57.6303 21.176V27H53.8503ZM64.1346 27V13H67.9146V27H64.1346ZM63.7986 11.04V7.4H68.2786V11.04H63.7986ZM88.081 18.796C88.081 16.78 87.325 15.716 85.925 15.716C84.133 15.716 82.957 17.48 82.957 20.196V27H79.177V18.796C79.177 16.78 78.421 15.716 77.021 15.716C75.229 15.716 74.053 17.48 74.053 20.196V27H70.273V13H74.053V15.324C74.921 13.588 76.461 12.552 78.449 12.552C80.521 12.552 81.921 13.672 82.565 15.744C83.461 13.784 85.197 12.552 87.353 12.552C90.237 12.552 91.861 14.736 91.861 18.628V27H88.081V18.796ZM100.589 27.448C96.0811 27.448 93.0291 24.452 93.0291 19.972C93.0291 15.632 95.9691 12.552 100.057 12.552C104.173 12.552 107.057 15.632 107.057 20.056V21.12H96.9211C96.9211 22.996 98.3211 24.284 100.365 24.284C101.765 24.284 102.829 23.668 103.249 22.604L107.057 22.884C106.637 25.628 104.089 27.448 100.589 27.448ZM96.9211 18.376H103.165C103.165 16.78 101.905 15.716 100.057 15.716C98.2091 15.716 96.9211 16.808 96.9211 18.376ZM117.262 27L114.434 23.108L111.606 27H107.07L112.166 20L107.07 13H111.606L114.434 16.892L117.262 13H121.798L116.702 20L121.798 27H117.262Z" fill="white"/>
<path d="M7.27561 28.4403H2C0.895431 28.4403 0 27.5449 0 26.4403V20.9421C0 20.4823 0.158391 20.0366 0.448509 19.68L12.6034 4.73791C12.9832 4.27103 13.5531 4 14.1549 4H20.1975C21.3021 4 22.1975 4.89543 22.1975 6V13.9403C22.1975 15.0449 23.093 15.9403 24.1975 15.9403H29C30.1046 15.9403 31 16.8357 31 17.9403V27C31 28.1046 30.1046 29 29 29H20.3704C19.2658 29 18.3704 28.1046 18.3704 27V21.5796C18.3704 19.6959 16.0041 18.8567 14.8173 20.3195L8.82871 27.7004C8.44895 28.1685 7.87835 28.4403 7.27561 28.4403Z" fill="white"/>
</svg>
