<svg width="320" height="210" viewBox="0 0 320 210" fill="none" xmlns="http://www.w3.org/2000/svg">
<rect width="320" height="210" fill="white"/>
<rect x="16" y="16" width="288" height="24" rx="12" fill="#F6F6F6"/>
<rect x="18" y="18" width="71" height="20" rx="10" fill="#155BFF"/>
<path d="M31.2432 33.1641C30.3454 33.1641 29.5479 32.9385 28.8506 32.4873C28.1533 32.0361 27.6064 31.4163 27.21 30.6279C26.8135 29.835 26.6152 28.9303 26.6152 27.9141C26.6152 26.8887 26.8135 25.9818 27.21 25.1934C27.6064 24.4004 28.1533 23.7783 28.8506 23.3271C29.5479 22.876 30.3454 22.6504 31.2432 22.6504C32.1455 22.6504 32.943 22.876 33.6357 23.3271C34.333 23.7783 34.8799 24.4004 35.2764 25.1934C35.6729 25.9818 35.8711 26.8887 35.8711 27.9141C35.8711 28.9303 35.6729 29.835 35.2764 30.6279C34.8799 31.4163 34.333 32.0361 33.6357 32.4873C32.943 32.9385 32.1455 33.1641 31.2432 33.1641ZM31.2432 32.0156C31.8584 32.0156 32.4235 31.8584 32.9385 31.5439C33.4535 31.2249 33.8659 30.7601 34.1758 30.1494C34.4857 29.5387 34.6406 28.7936 34.6406 27.9141C34.6406 27.0299 34.4857 26.2826 34.1758 25.6719C33.8659 25.0566 33.4535 24.5918 32.9385 24.2773C32.4235 23.9583 31.8584 23.7988 31.2432 23.7988C30.6279 23.7988 30.0628 23.9583 29.5479 24.2773C29.0329 24.5918 28.6204 25.0566 28.3105 25.6719C28.0007 26.2826 27.8457 27.0299 27.8457 27.9141C27.8457 28.7936 28.0007 29.5387 28.3105 30.1494C28.6204 30.7601 29.0329 31.2249 29.5479 31.5439C30.0628 31.8584 30.6279 32.0156 31.2432 32.0156ZM39.0605 33L36.2714 25.7812H37.5292L39.0878 29.9375C39.1926 30.2155 39.2929 30.4935 39.3886 30.7715C39.4843 31.0449 39.5777 31.3206 39.6689 31.5986C39.7646 31.3206 39.8603 31.0449 39.956 30.7715C40.0517 30.4935 40.1497 30.2155 40.2499 29.9375L41.788 25.7812H43.0253L40.2362 33H39.0605ZM46.3787 33.1641C45.6724 33.1641 45.0685 33.0023 44.5672 32.6787C44.0705 32.3551 43.6899 31.9108 43.4256 31.3457C43.1613 30.776 43.0291 30.1289 43.0291 29.4043C43.0291 28.6706 43.1681 28.0189 43.4461 27.4492C43.7241 26.8796 44.1092 26.4329 44.6014 26.1094C45.0936 25.7812 45.6587 25.6172 46.2967 25.6172C46.9666 25.6172 47.5477 25.7767 48.0399 26.0957C48.5321 26.4147 48.9103 26.859 49.1746 27.4287C49.4435 27.9984 49.578 28.6569 49.578 29.4043V29.7256H44.1776C44.2049 30.432 44.4077 31.0062 44.786 31.4482C45.1642 31.8903 45.6952 32.1113 46.3787 32.1113C46.8937 32.1113 47.313 31.9928 47.6366 31.7559C47.9647 31.5189 48.1834 31.2135 48.2928 30.8398H49.4549C49.3638 31.3001 49.1746 31.7057 48.8875 32.0566C48.6004 32.403 48.2404 32.6742 47.8075 32.8701C47.3791 33.0661 46.9028 33.1641 46.3787 33.1641ZM44.1912 28.7275H48.4159C48.3521 28.0941 48.131 27.5905 47.7528 27.2168C47.3745 26.8431 46.8892 26.6562 46.2967 26.6562C45.7043 26.6562 45.2212 26.8431 44.8475 27.2168C44.4738 27.5905 44.2551 28.0941 44.1912 28.7275ZM50.4841 33V25.7812H51.5916V26.916H51.6189C51.7511 26.5423 51.9607 26.2415 52.2478 26.0137C52.5349 25.7858 52.9041 25.6719 53.3552 25.6719C53.4601 25.6719 53.5558 25.6764 53.6423 25.6855C53.7335 25.6947 53.8018 25.7038 53.8474 25.7129V26.875C53.8018 26.8613 53.713 26.8454 53.5808 26.8271C53.4532 26.8044 53.3051 26.793 53.1365 26.793C52.7354 26.793 52.3868 26.9342 52.0906 27.2168C51.7944 27.4993 51.6462 27.946 51.6462 28.5566V33H50.4841ZM56.8317 33L54.0427 25.7812H55.3005L56.8591 29.9375C56.9639 30.2155 57.0641 30.4935 57.1598 30.7715C57.2555 31.0449 57.349 31.3206 57.4401 31.5986C57.5358 31.3206 57.6315 31.0449 57.7272 30.7715C57.8229 30.4935 57.9209 30.2155 58.0212 29.9375L59.5593 25.7812H60.7966L58.0075 33H56.8317ZM61.443 33V25.7812H62.6051V33H61.443ZM62.024 24.373C61.8053 24.373 61.6184 24.2956 61.4635 24.1406C61.3085 23.9857 61.2311 23.7988 61.2311 23.5801C61.2311 23.3613 61.3085 23.1745 61.4635 23.0195C61.6184 22.8646 61.8053 22.7871 62.024 22.7871C62.2428 22.7871 62.4296 22.8646 62.5846 23.0195C62.7395 23.1745 62.817 23.3613 62.817 23.5801C62.817 23.7988 62.7395 23.9857 62.5846 24.1406C62.4296 24.2956 62.2428 24.373 62.024 24.373ZM66.8882 33.1641C66.1818 33.1641 65.578 33.0023 65.0767 32.6787C64.5799 32.3551 64.1994 31.9108 63.9351 31.3457C63.6708 30.776 63.5386 30.1289 63.5386 29.4043C63.5386 28.6706 63.6776 28.0189 63.9556 27.4492C64.2336 26.8796 64.6187 26.4329 65.1109 26.1094C65.603 25.7812 66.1682 25.6172 66.8062 25.6172C67.4761 25.6172 68.0571 25.7767 68.5493 26.0957C69.0415 26.4147 69.4198 26.859 69.6841 27.4287C69.953 27.9984 70.0874 28.6569 70.0874 29.4043V29.7256H64.687C64.7144 30.432 64.9172 31.0062 65.2954 31.4482C65.6737 31.8903 66.2046 32.1113 66.8882 32.1113C67.4032 32.1113 67.8224 31.9928 68.146 31.7559C68.4741 31.5189 68.6929 31.2135 68.8023 30.8398H69.9644C69.8732 31.3001 69.6841 31.7057 69.397 32.0566C69.1099 32.403 68.7499 32.6742 68.3169 32.8701C67.8885 33.0661 67.4123 33.1641 66.8882 33.1641ZM64.7007 28.7275H68.9253C68.8615 28.0941 68.6405 27.5905 68.2622 27.2168C67.884 26.8431 67.3986 26.6562 66.8062 26.6562C66.2137 26.6562 65.7307 26.8431 65.357 27.2168C64.9833 27.5905 64.7645 28.0941 64.7007 28.7275ZM72.3198 33L70.0776 25.7812H71.2944L72.2036 28.9531C72.3312 29.3906 72.4519 29.8372 72.5659 30.293C72.6844 30.7487 72.8028 31.1999 72.9213 31.6465C73.0398 31.1999 73.1583 30.7487 73.2768 30.293C73.3953 29.8372 73.5183 29.3906 73.6459 28.9531L74.562 25.7812H75.7104L76.6127 28.9531C76.7358 29.3861 76.8543 29.8281 76.9682 30.2793C77.0867 30.7305 77.2052 31.1748 77.3237 31.6123C77.4422 31.1748 77.5607 30.7305 77.6791 30.2793C77.7976 29.8281 77.9207 29.3861 78.0483 28.9531L78.978 25.7812H80.1948L77.9526 33H76.7358L75.7856 29.7188C75.6717 29.3223 75.5623 28.9189 75.4575 28.5088C75.3526 28.0941 75.2455 27.6839 75.1362 27.2783C75.0314 27.6839 74.9243 28.0941 74.8149 28.5088C74.7055 28.9189 74.5939 29.3223 74.4799 29.7188L73.5092 33H72.3198Z" fill="white"/>
<path d="M109.375 33.1641C108.591 33.1641 107.912 33.0251 107.338 32.7471C106.764 32.4645 106.319 32.0658 106.005 31.5508C105.69 31.0358 105.533 30.4251 105.533 29.7188H106.791C106.791 30.4479 107.017 31.0176 107.468 31.4277C107.924 31.8379 108.559 32.043 109.375 32.043C110.118 32.043 110.713 31.8812 111.159 31.5576C111.61 31.234 111.836 30.7988 111.836 30.252C111.836 29.8281 111.683 29.484 111.378 29.2197C111.073 28.9554 110.553 28.7321 109.819 28.5498L108.678 28.2695C107.639 28.0143 106.889 27.6725 106.429 27.2441C105.968 26.8158 105.738 26.2552 105.738 25.5625C105.738 24.9746 105.882 24.4642 106.169 24.0312C106.461 23.5938 106.871 23.2542 107.399 23.0127C107.928 22.7712 108.546 22.6504 109.252 22.6504C110.314 22.6504 111.159 22.9352 111.788 23.5049C112.422 24.07 112.752 24.8424 112.779 25.8223H111.562C111.526 25.1842 111.298 24.6852 110.879 24.3252C110.46 23.9606 109.904 23.7783 109.211 23.7783C108.55 23.7783 108.008 23.9401 107.584 24.2637C107.165 24.5827 106.955 24.9951 106.955 25.501C106.955 25.8975 107.11 26.221 107.42 26.4717C107.734 26.7178 108.261 26.9342 108.999 27.1211L110.154 27.4082C111.148 27.6543 111.882 28.0029 112.355 28.4541C112.829 28.9053 113.066 29.4863 113.066 30.1973C113.066 30.7852 112.911 31.3024 112.602 31.749C112.296 32.1956 111.866 32.5443 111.31 32.7949C110.758 33.041 110.113 33.1641 109.375 33.1641ZM116.242 33.1094C115.527 33.1094 114.927 32.9248 114.444 32.5557C113.966 32.1865 113.726 31.6419 113.726 30.9219C113.726 30.5072 113.806 30.1699 113.966 29.9102C114.13 29.6504 114.346 29.4476 114.615 29.3018C114.889 29.1514 115.196 29.0374 115.538 28.96C115.884 28.8825 116.238 28.821 116.598 28.7754C117.058 28.7116 117.42 28.6637 117.684 28.6318C117.949 28.5999 118.136 28.5475 118.245 28.4746C118.359 28.4017 118.416 28.2741 118.416 28.0918V28.0234C118.416 27.6315 118.275 27.3079 117.992 27.0527C117.714 26.7975 117.322 26.6699 116.816 26.6699C116.315 26.6699 115.903 26.793 115.579 27.0391C115.26 27.2806 115.087 27.5814 115.059 27.9414H113.877C113.9 27.4993 114.036 27.1074 114.287 26.7656C114.538 26.4193 114.879 26.1458 115.312 25.9453C115.745 25.7448 116.247 25.6445 116.816 25.6445C117.659 25.6445 118.327 25.8633 118.819 26.3008C119.316 26.7337 119.564 27.3079 119.564 28.0234V33H118.416V31.9746H118.389C118.302 32.1478 118.174 32.3232 118.006 32.501C117.837 32.6742 117.609 32.82 117.322 32.9385C117.04 33.0524 116.68 33.1094 116.242 33.1094ZM116.406 32.0703C116.88 32.0703 117.265 31.986 117.561 31.8174C117.858 31.6442 118.074 31.4209 118.211 31.1475C118.348 30.874 118.416 30.5801 118.416 30.2656V29.3633C118.329 29.4453 118.099 29.5205 117.726 29.5889C117.352 29.6527 116.958 29.7142 116.543 29.7734C116.265 29.8099 116.001 29.8737 115.75 29.9648C115.504 30.0514 115.303 30.1768 115.148 30.3408C114.993 30.5003 114.916 30.7168 114.916 30.9902C114.916 31.3275 115.048 31.5918 115.312 31.7832C115.581 31.9746 115.946 32.0703 116.406 32.0703ZM122.029 22.8145V33H120.867V22.8145H122.029ZM126.312 33.1641C125.606 33.1641 125.002 33.0023 124.501 32.6787C124.004 32.3551 123.623 31.9108 123.359 31.3457C123.095 30.776 122.963 30.1289 122.963 29.4043C122.963 28.6706 123.102 28.0189 123.38 27.4492C123.658 26.8796 124.043 26.4329 124.535 26.1094C125.027 25.7812 125.592 25.6172 126.23 25.6172C126.9 25.6172 127.481 25.7767 127.973 26.0957C128.466 26.4147 128.844 26.859 129.108 27.4287C129.377 27.9984 129.511 28.6569 129.511 29.4043V29.7256H124.111C124.138 30.432 124.341 31.0062 124.719 31.4482C125.098 31.8903 125.629 32.1113 126.312 32.1113C126.827 32.1113 127.247 31.9928 127.57 31.7559C127.898 31.5189 128.117 31.2135 128.226 30.8398H129.388C129.297 31.3001 129.108 31.7057 128.821 32.0566C128.534 32.403 128.174 32.6742 127.741 32.8701C127.313 33.0661 126.836 33.1641 126.312 33.1641ZM124.125 28.7275H128.349C128.286 28.0941 128.065 27.5905 127.686 27.2168C127.308 26.8431 126.823 26.6562 126.23 26.6562C125.638 26.6562 125.155 26.8431 124.781 27.2168C124.407 27.5905 124.189 28.0941 124.125 28.7275ZM132.933 33.1641C132.418 33.1641 131.951 33.0798 131.532 32.9111C131.113 32.7425 130.773 32.4873 130.513 32.1455C130.254 31.7992 130.108 31.3639 130.076 30.8398H131.224C131.306 31.724 131.867 32.166 132.906 32.166C133.407 32.166 133.801 32.0612 134.089 31.8516C134.38 31.6419 134.526 31.3776 134.526 31.0586C134.526 30.7852 134.426 30.5664 134.225 30.4023C134.025 30.2383 133.763 30.1198 133.439 30.0469L132.277 29.7734C130.919 29.4544 130.24 28.7708 130.24 27.7227C130.24 27.3125 130.349 26.9502 130.568 26.6357C130.791 26.3167 131.099 26.0684 131.491 25.8906C131.887 25.7083 132.343 25.6172 132.858 25.6172C133.359 25.6172 133.808 25.7129 134.205 25.9043C134.606 26.0911 134.923 26.3577 135.155 26.7041C135.392 27.0505 135.517 27.4629 135.531 27.9414H134.396C134.392 27.5586 134.25 27.2419 133.972 26.9912C133.694 26.7406 133.323 26.6152 132.858 26.6152C132.416 26.6152 132.063 26.7223 131.799 26.9365C131.534 27.1507 131.402 27.4128 131.402 27.7227C131.402 27.9961 131.502 28.2171 131.703 28.3857C131.903 28.5498 132.177 28.6729 132.523 28.7549L133.685 29.0283C134.378 29.1924 134.886 29.4385 135.21 29.7666C135.533 30.0902 135.695 30.5117 135.695 31.0312C135.695 31.4779 135.574 31.8607 135.333 32.1797C135.091 32.4987 134.761 32.7425 134.341 32.9111C133.927 33.0798 133.457 33.1641 132.933 33.1641Z" fill="black" fill-opacity="0.5"/>
<path d="M174.243 33.1641C173.345 33.1641 172.548 32.9385 171.851 32.4873C171.153 32.0361 170.606 31.4163 170.21 30.6279C169.813 29.835 169.615 28.9303 169.615 27.9141C169.615 26.8887 169.813 25.9818 170.21 25.1934C170.606 24.4004 171.153 23.7783 171.851 23.3271C172.548 22.876 173.345 22.6504 174.243 22.6504C175.146 22.6504 175.943 22.876 176.636 23.3271C177.333 23.7783 177.88 24.4004 178.276 25.1934C178.673 25.9818 178.871 26.8887 178.871 27.9141C178.871 28.9303 178.673 29.835 178.276 30.6279C177.88 31.4163 177.333 32.0361 176.636 32.4873C175.943 32.9385 175.146 33.1641 174.243 33.1641ZM174.243 32.0156C174.858 32.0156 175.424 31.8584 175.938 31.5439C176.453 31.2249 176.866 30.7601 177.176 30.1494C177.486 29.5387 177.641 28.7936 177.641 27.9141C177.641 27.0299 177.486 26.2826 177.176 25.6719C176.866 25.0566 176.453 24.5918 175.938 24.2773C175.424 23.9583 174.858 23.7988 174.243 23.7988C173.628 23.7988 173.063 23.9583 172.548 24.2773C172.033 24.5918 171.62 25.0566 171.311 25.6719C171.001 26.2826 170.846 27.0299 170.846 27.9141C170.846 28.7936 171.001 29.5387 171.311 30.1494C171.62 30.7601 172.033 31.2249 172.548 31.5439C173.063 31.8584 173.628 32.0156 174.243 32.0156ZM179.928 33V25.7812H181.035V26.916H181.062C181.195 26.5423 181.404 26.2415 181.691 26.0137C181.978 25.7858 182.348 25.6719 182.799 25.6719C182.904 25.6719 182.999 25.6764 183.086 25.6855C183.177 25.6947 183.245 25.7038 183.291 25.7129V26.875C183.245 26.8613 183.156 26.8454 183.024 26.8271C182.897 26.8044 182.749 26.793 182.58 26.793C182.179 26.793 181.83 26.9342 181.534 27.2168C181.238 27.4993 181.09 27.946 181.09 28.5566V33H179.928ZM186.644 33.1367C186.02 33.1367 185.471 32.9795 184.997 32.665C184.528 32.346 184.163 31.9062 183.903 31.3457C183.643 30.7806 183.514 30.1289 183.514 29.3906C183.514 28.6478 183.643 27.9961 183.903 27.4355C184.163 26.8704 184.528 26.4307 184.997 26.1162C185.471 25.8018 186.02 25.6445 186.644 25.6445C187.114 25.6445 187.549 25.7448 187.95 25.9453C188.351 26.1413 188.668 26.4421 188.9 26.8477H188.914V22.8145H190.076V33H188.941V31.9062H188.928C188.668 32.321 188.34 32.6309 187.943 32.8359C187.547 33.0365 187.114 33.1367 186.644 33.1367ZM186.822 32.0908C187.492 32.0908 188.023 31.8447 188.415 31.3525C188.811 30.8604 189.01 30.2064 189.01 29.3906C189.01 28.5749 188.811 27.9209 188.415 27.4287C188.023 26.932 187.492 26.6836 186.822 26.6836C186.198 26.6836 185.685 26.9137 185.284 27.374C184.888 27.8343 184.689 28.5065 184.689 29.3906C184.689 30.2747 184.888 30.9469 185.284 31.4072C185.685 31.863 186.198 32.0908 186.822 32.0908ZM194.359 33.1641C193.653 33.1641 193.049 33.0023 192.548 32.6787C192.051 32.3551 191.67 31.9108 191.406 31.3457C191.142 30.776 191.01 30.1289 191.01 29.4043C191.01 28.6706 191.149 28.0189 191.427 27.4492C191.705 26.8796 192.09 26.4329 192.582 26.1094C193.074 25.7812 193.639 25.6172 194.277 25.6172C194.947 25.6172 195.528 25.7767 196.02 26.0957C196.512 26.4147 196.891 26.859 197.155 27.4287C197.424 27.9984 197.558 28.6569 197.558 29.4043V29.7256H192.158C192.185 30.432 192.388 31.0062 192.766 31.4482C193.145 31.8903 193.676 32.1113 194.359 32.1113C194.874 32.1113 195.293 31.9928 195.617 31.7559C195.945 31.5189 196.164 31.2135 196.273 30.8398H197.435C197.344 31.3001 197.155 31.7057 196.868 32.0566C196.581 32.403 196.221 32.6742 195.788 32.8701C195.359 33.0661 194.883 33.1641 194.359 33.1641ZM192.172 28.7275H196.396C196.332 28.0941 196.111 27.5905 195.733 27.2168C195.355 26.8431 194.87 26.6562 194.277 26.6562C193.685 26.6562 193.202 26.8431 192.828 27.2168C192.454 27.5905 192.235 28.0941 192.172 28.7275ZM198.465 33V25.7812H199.572V26.916H199.599C199.731 26.5423 199.941 26.2415 200.228 26.0137C200.515 25.7858 200.884 25.6719 201.336 25.6719C201.44 25.6719 201.536 25.6764 201.623 25.6855C201.714 25.6947 201.782 25.7038 201.828 25.7129V26.875C201.782 26.8613 201.693 26.8454 201.561 26.8271C201.434 26.8044 201.285 26.793 201.117 26.793C200.716 26.793 200.367 26.9342 200.071 27.2168C199.775 27.4993 199.627 27.946 199.627 28.5566V33H198.465Z" fill="black" fill-opacity="0.5"/>
<path d="M235.137 33L238.896 22.8145H240.291L244.01 33H242.697L241.699 30.1426H237.447L236.422 33H235.137ZM237.837 29.0488H241.323L240.558 26.8613C240.43 26.5013 240.291 26.1003 240.141 25.6582C239.995 25.2116 239.812 24.6488 239.594 23.9697C239.375 24.6488 239.19 25.2116 239.04 25.6582C238.894 26.1003 238.755 26.5013 238.623 26.8613L237.837 29.0488ZM245.75 28.7754V33H244.588V25.7812H245.723V26.8408C245.973 26.4307 246.279 26.1299 246.639 25.9385C247.003 25.7425 247.413 25.6445 247.869 25.6445C248.357 25.6445 248.801 25.7516 249.202 25.9658C249.603 26.1755 249.922 26.4922 250.159 26.916C250.401 27.3398 250.521 27.873 250.521 28.5156V33H249.359V28.5977C249.359 27.9733 249.209 27.5039 248.908 27.1895C248.612 26.8704 248.193 26.7109 247.65 26.7109C247.126 26.7109 246.677 26.8727 246.304 27.1963C245.934 27.5199 245.75 28.0462 245.75 28.7754ZM254.025 33.1094C253.31 33.1094 252.71 32.9248 252.227 32.5557C251.749 32.1865 251.51 31.6419 251.51 30.9219C251.51 30.5072 251.589 30.1699 251.749 29.9102C251.913 29.6504 252.129 29.4476 252.398 29.3018C252.672 29.1514 252.979 29.0374 253.321 28.96C253.667 28.8825 254.021 28.821 254.381 28.7754C254.841 28.7116 255.203 28.6637 255.468 28.6318C255.732 28.5999 255.919 28.5475 256.028 28.4746C256.142 28.4017 256.199 28.2741 256.199 28.0918V28.0234C256.199 27.6315 256.058 27.3079 255.775 27.0527C255.497 26.7975 255.105 26.6699 254.599 26.6699C254.098 26.6699 253.686 26.793 253.362 27.0391C253.043 27.2806 252.87 27.5814 252.843 27.9414H251.66C251.683 27.4993 251.82 27.1074 252.07 26.7656C252.321 26.4193 252.663 26.1458 253.096 25.9453C253.528 25.7448 254.03 25.6445 254.599 25.6445C255.443 25.6445 256.11 25.8633 256.602 26.3008C257.099 26.7337 257.347 27.3079 257.347 28.0234V33H256.199V31.9746H256.172C256.085 32.1478 255.958 32.3232 255.789 32.501C255.62 32.6742 255.392 32.82 255.105 32.9385C254.823 33.0524 254.463 33.1094 254.025 33.1094ZM254.189 32.0703C254.663 32.0703 255.048 31.986 255.345 31.8174C255.641 31.6442 255.857 31.4209 255.994 31.1475C256.131 30.874 256.199 30.5801 256.199 30.2656V29.3633C256.112 29.4453 255.882 29.5205 255.509 29.5889C255.135 29.6527 254.741 29.7142 254.326 29.7734C254.048 29.8099 253.784 29.8737 253.533 29.9648C253.287 30.0514 253.086 30.1768 252.931 30.3408C252.777 30.5003 252.699 30.7168 252.699 30.9902C252.699 31.3275 252.831 31.5918 253.096 31.7832C253.364 31.9746 253.729 32.0703 254.189 32.0703ZM259.812 22.8145V33H258.65V22.8145H259.812ZM261.238 35.8574V34.832H261.949C262.377 34.832 262.703 34.5426 262.926 33.9639L263.323 32.9385L260.527 25.7812H261.785L263.343 29.9375C263.444 30.2064 263.542 30.4775 263.637 30.751C263.738 31.0199 263.833 31.2887 263.924 31.5576C264.02 31.2887 264.116 31.0199 264.212 30.751C264.312 30.4775 264.412 30.2064 264.512 29.9375L266.044 25.7812H267.281L263.952 34.3398C263.765 34.8229 263.498 35.1966 263.152 35.4609C262.806 35.7253 262.405 35.8574 261.949 35.8574H261.238ZM271.352 25.7812V26.7793H269.889V31.25C269.889 31.528 269.946 31.724 270.06 31.8379C270.179 31.9473 270.386 32.002 270.682 32.002H271.352V33H270.573C269.342 33 268.727 32.4577 268.727 31.373V26.7793H267.442V25.7812H268.727V23.8125H269.889V25.7812H271.352ZM272.142 33V25.7812H273.304V33H272.142ZM272.723 24.373C272.504 24.373 272.318 24.2956 272.163 24.1406C272.008 23.9857 271.93 23.7988 271.93 23.5801C271.93 23.3613 272.008 23.1745 272.163 23.0195C272.318 22.8646 272.504 22.7871 272.723 22.7871C272.942 22.7871 273.129 22.8646 273.284 23.0195C273.439 23.1745 273.516 23.3613 273.516 23.5801C273.516 23.7988 273.439 23.9857 273.284 24.1406C273.129 24.2956 272.942 24.373 272.723 24.373ZM277.587 33.1641C276.922 33.1641 276.336 33.0046 275.831 32.6855C275.329 32.362 274.937 31.9176 274.655 31.3525C274.377 30.7874 274.238 30.138 274.238 29.4043C274.238 28.666 274.377 28.012 274.655 27.4424C274.937 26.8727 275.329 26.4261 275.831 26.1025C276.336 25.779 276.922 25.6172 277.587 25.6172C278.134 25.6172 278.624 25.7266 279.057 25.9453C279.49 26.1595 279.843 26.4557 280.117 26.834C280.395 27.2122 280.566 27.6452 280.629 28.1328H279.454C279.367 27.709 279.166 27.3604 278.852 27.0869C278.542 26.8089 278.121 26.6699 277.587 26.6699C276.908 26.6699 276.375 26.9183 275.988 27.415C275.605 27.9118 275.414 28.5749 275.414 29.4043C275.414 30.2246 275.605 30.8809 275.988 31.373C276.371 31.8652 276.904 32.1113 277.587 32.1113C278.13 32.1113 278.544 31.9792 278.831 31.7148C279.119 31.446 279.319 31.0905 279.433 30.6484H280.629C280.566 31.1224 280.395 31.5508 280.117 31.9336C279.843 32.3118 279.488 32.6126 279.05 32.8359C278.617 33.0547 278.13 33.1641 277.587 33.1641ZM284.031 33.1641C283.516 33.1641 283.049 33.0798 282.629 32.9111C282.21 32.7425 281.87 32.4873 281.611 32.1455C281.351 31.7992 281.205 31.3639 281.173 30.8398H282.322C282.404 31.724 282.964 32.166 284.003 32.166C284.505 32.166 284.899 32.0612 285.186 31.8516C285.478 31.6419 285.623 31.3776 285.623 31.0586C285.623 30.7852 285.523 30.5664 285.323 30.4023C285.122 30.2383 284.86 30.1198 284.536 30.0469L283.374 29.7734C282.016 29.4544 281.337 28.7708 281.337 27.7227C281.337 27.3125 281.447 26.9502 281.665 26.6357C281.889 26.3167 282.196 26.0684 282.588 25.8906C282.985 25.7083 283.44 25.6172 283.955 25.6172C284.457 25.6172 284.906 25.7129 285.302 25.9043C285.703 26.0911 286.02 26.3577 286.252 26.7041C286.489 27.0505 286.615 27.4629 286.628 27.9414H285.494C285.489 27.5586 285.348 27.2419 285.07 26.9912C284.792 26.7406 284.42 26.6152 283.955 26.6152C283.513 26.6152 283.16 26.7223 282.896 26.9365C282.632 27.1507 282.499 27.4128 282.499 27.7227C282.499 27.9961 282.6 28.2171 282.8 28.3857C283.001 28.5498 283.274 28.6729 283.62 28.7549L284.783 29.0283C285.475 29.1924 285.983 29.4385 286.307 29.7666C286.631 30.0902 286.792 30.5117 286.792 31.0312C286.792 31.4779 286.672 31.8607 286.43 32.1797C286.189 32.4987 285.858 32.7425 285.439 32.9111C285.024 33.0798 284.555 33.1641 284.031 33.1641Z" fill="black" fill-opacity="0.5"/>
<line x1="153.5" y1="21" x2="153.5" y2="35" stroke="#E9E9E9"/>
<line x1="219.5" y1="21" x2="219.5" y2="35" stroke="#E9E9E9"/>
<path d="M16.3418 57.9082V56.8145H24.2031V57.9082H20.8945V67H19.6641V57.9082H16.3418ZM26.3261 67.1641C25.6607 67.1641 25.0751 67.0046 24.5693 66.6855C24.068 66.362 23.676 65.9176 23.3935 65.3525C23.1155 64.7874 22.9765 64.138 22.9765 63.4043C22.9765 62.666 23.1155 62.012 23.3935 61.4424C23.676 60.8727 24.068 60.4261 24.5693 60.1025C25.0751 59.779 25.6607 59.6172 26.3261 59.6172C26.996 59.6172 27.5816 59.779 28.0829 60.1025C28.5842 60.4261 28.9739 60.8727 29.2519 61.4424C29.5344 62.012 29.6757 62.666 29.6757 63.4043C29.6757 64.138 29.5344 64.7874 29.2519 65.3525C28.9739 65.9176 28.5842 66.362 28.0829 66.6855C27.5816 67.0046 26.996 67.1641 26.3261 67.1641ZM26.3261 66.1113C27.0097 66.1113 27.5429 65.8652 27.9257 65.373C28.3085 64.8763 28.4999 64.2201 28.4999 63.4043C28.4999 62.5794 28.3062 61.9186 27.9189 61.4219C27.5361 60.9206 27.0051 60.6699 26.3261 60.6699C25.6471 60.6699 25.1139 60.9183 24.7265 61.415C24.3437 61.9118 24.1523 62.5749 24.1523 63.4043C24.1523 64.2246 24.3437 64.8809 24.7265 65.373C25.1093 65.8652 25.6425 66.1113 26.3261 66.1113ZM33.7606 59.7812V60.7793H32.2977V65.25C32.2977 65.528 32.3547 65.724 32.4686 65.8379C32.5871 65.9473 32.7944 66.002 33.0907 66.002H33.7606V67H32.9813C31.7508 67 31.1356 66.4577 31.1356 65.373V60.7793H29.8504V59.7812H31.1356V57.8125H32.2977V59.7812H33.7606ZM36.9568 67.1094C36.2413 67.1094 35.642 66.9248 35.1589 66.5557C34.6804 66.1865 34.4412 65.6419 34.4412 64.9219C34.4412 64.5072 34.5209 64.1699 34.6804 63.9102C34.8445 63.6504 35.061 63.4476 35.3298 63.3018C35.6033 63.1514 35.9109 63.0374 36.2527 62.96C36.599 62.8825 36.9522 62.821 37.3123 62.7754C37.7726 62.7116 38.1349 62.6637 38.3992 62.6318C38.6635 62.5999 38.8504 62.5475 38.9597 62.4746C39.0737 62.4017 39.1306 62.2741 39.1306 62.0918V62.0234C39.1306 61.6315 38.9893 61.3079 38.7068 61.0527C38.4288 60.7975 38.0369 60.6699 37.531 60.6699C37.0297 60.6699 36.6173 60.793 36.2937 61.0391C35.9747 61.2806 35.8015 61.5814 35.7742 61.9414H34.5916C34.6143 61.4993 34.7511 61.1074 35.0017 60.7656C35.2524 60.4193 35.5942 60.1458 36.0271 59.9453C36.4601 59.7448 36.9614 59.6445 37.531 59.6445C38.3741 59.6445 39.0418 59.8633 39.5339 60.3008C40.0307 60.7337 40.2791 61.3079 40.2791 62.0234V67H39.1306V65.9746H39.1033C39.0167 66.1478 38.8891 66.3232 38.7205 66.501C38.5518 66.6742 38.324 66.82 38.0369 66.9385C37.7543 67.0524 37.3943 67.1094 36.9568 67.1094ZM37.1209 66.0703C37.5948 66.0703 37.9799 65.986 38.2761 65.8174C38.5724 65.6442 38.7888 65.4209 38.9255 65.1475C39.0623 64.874 39.1306 64.5801 39.1306 64.2656V63.3633C39.044 63.4453 38.8139 63.5205 38.4402 63.5889C38.0665 63.6527 37.6723 63.7142 37.2576 63.7734C36.9796 63.8099 36.7153 63.8737 36.4646 63.9648C36.2185 64.0514 36.018 64.1768 35.863 64.3408C35.7081 64.5003 35.6306 64.7168 35.6306 64.9902C35.6306 65.3275 35.7628 65.5918 36.0271 65.7832C36.296 65.9746 36.6606 66.0703 37.1209 66.0703ZM42.7438 56.8145V67H41.5817V56.8145H42.7438ZM50.5581 67.1367C50.0887 67.1367 49.6558 67.0365 49.2593 66.8359C48.8628 66.6309 48.5347 66.321 48.2749 65.9062H48.2612V67H47.1265V56.8145H48.2886V60.8477H48.3023C48.5347 60.4421 48.8514 60.1413 49.2525 59.9453C49.6535 59.7448 50.0887 59.6445 50.5581 59.6445C51.187 59.6445 51.7362 59.8018 52.2056 60.1162C52.675 60.4307 53.0396 60.8704 53.2993 61.4355C53.5591 61.9961 53.689 62.6478 53.689 63.3906C53.689 64.1289 53.5591 64.7806 53.2993 65.3457C53.0396 65.9062 52.675 66.346 52.2056 66.665C51.7362 66.9795 51.187 67.1367 50.5581 67.1367ZM50.3804 66.0908C51.0047 66.0908 51.5152 65.863 51.9116 65.4072C52.3127 64.9469 52.5132 64.2747 52.5132 63.3906C52.5132 62.5065 52.3127 61.8343 51.9116 61.374C51.5152 60.9137 51.0047 60.6836 50.3804 60.6836C49.7105 60.6836 49.1773 60.932 48.7808 61.4287C48.3889 61.9209 48.1929 62.5749 48.1929 63.3906C48.1929 64.2064 48.3889 64.8604 48.7808 65.3525C49.1773 65.8447 49.7105 66.0908 50.3804 66.0908ZM56.892 67.1094C56.1765 67.1094 55.5773 66.9248 55.0942 66.5557C54.6157 66.1865 54.3764 65.6419 54.3764 64.9219C54.3764 64.5072 54.4562 64.1699 54.6157 63.9102C54.7797 63.6504 54.9962 63.4476 55.2651 63.3018C55.5385 63.1514 55.8461 63.0374 56.1879 62.96C56.5343 62.8825 56.8875 62.821 57.2475 62.7754C57.7078 62.7116 58.0701 62.6637 58.3344 62.6318C58.5987 62.5999 58.7856 62.5475 58.895 62.4746C59.0089 62.4017 59.0659 62.2741 59.0659 62.0918V62.0234C59.0659 61.6315 58.9246 61.3079 58.642 61.0527C58.364 60.7975 57.9721 60.6699 57.4663 60.6699C56.9649 60.6699 56.5525 60.793 56.2289 61.0391C55.9099 61.2806 55.7368 61.5814 55.7094 61.9414H54.5268C54.5496 61.4993 54.6863 61.1074 54.937 60.7656C55.1876 60.4193 55.5294 60.1458 55.9623 59.9453C56.3953 59.7448 56.8966 59.6445 57.4663 59.6445C58.3094 59.6445 58.977 59.8633 59.4692 60.3008C59.9659 60.7337 60.2143 61.3079 60.2143 62.0234V67H59.0659V65.9746H59.0385C58.9519 66.1478 58.8243 66.3232 58.6557 66.501C58.4871 66.6742 58.2592 66.82 57.9721 66.9385C57.6896 67.0524 57.3295 67.1094 56.892 67.1094ZM57.0561 66.0703C57.5301 66.0703 57.9151 65.986 58.2114 65.8174C58.5076 65.6442 58.7241 65.4209 58.8608 65.1475C58.9975 64.874 59.0659 64.5801 59.0659 64.2656V63.3633C58.9793 63.4453 58.7491 63.5205 58.3754 63.5889C58.0017 63.6527 57.6075 63.7142 57.1928 63.7734C56.9148 63.8099 56.6505 63.8737 56.3998 63.9648C56.1538 64.0514 55.9532 64.1768 55.7983 64.3408C55.6433 64.5003 55.5659 64.7168 55.5659 64.9902C55.5659 65.3275 55.698 65.5918 55.9623 65.7832C56.2312 65.9746 56.5958 66.0703 57.0561 66.0703ZM62.6791 56.8145V67H61.517V56.8145H62.6791ZM66.1829 67.1094C65.4674 67.1094 64.8681 66.9248 64.385 66.5557C63.9065 66.1865 63.6673 65.6419 63.6673 64.9219C63.6673 64.5072 63.747 64.1699 63.9065 63.9102C64.0706 63.6504 64.2871 63.4476 64.5559 63.3018C64.8294 63.1514 65.137 63.0374 65.4788 62.96C65.8251 62.8825 66.1783 62.821 66.5384 62.7754C66.9986 62.7116 67.361 62.6637 67.6253 62.6318C67.8896 62.5999 68.0764 62.5475 68.1858 62.4746C68.2998 62.4017 68.3567 62.2741 68.3567 62.0918V62.0234C68.3567 61.6315 68.2154 61.3079 67.9329 61.0527C67.6549 60.7975 67.263 60.6699 66.7571 60.6699C66.2558 60.6699 65.8434 60.793 65.5198 61.0391C65.2008 61.2806 65.0276 61.5814 65.0003 61.9414H63.8177C63.8404 61.4993 63.9772 61.1074 64.2278 60.7656C64.4785 60.4193 64.8203 60.1458 65.2532 59.9453C65.6861 59.7448 66.1874 59.6445 66.7571 59.6445C67.6002 59.6445 68.2679 59.8633 68.76 60.3008C69.2568 60.7337 69.5052 61.3079 69.5052 62.0234V67H68.3567V65.9746H68.3294C68.2428 66.1478 68.1152 66.3232 67.9466 66.501C67.7779 66.6742 67.5501 66.82 67.263 66.9385C66.9804 67.0524 66.6204 67.1094 66.1829 67.1094ZM66.347 66.0703C66.8209 66.0703 67.206 65.986 67.5022 65.8174C67.7985 65.6442 68.0149 65.4209 68.1516 65.1475C68.2884 64.874 68.3567 64.5801 68.3567 64.2656V63.3633C68.2701 63.4453 68.04 63.5205 67.6663 63.5889C67.2926 63.6527 66.8984 63.7142 66.4837 63.7734C66.2057 63.8099 65.9414 63.8737 65.6907 63.9648C65.4446 64.0514 65.2441 64.1768 65.0891 64.3408C64.9342 64.5003 64.8567 64.7168 64.8567 64.9902C64.8567 65.3275 64.9889 65.5918 65.2532 65.7832C65.5221 65.9746 65.8867 66.0703 66.347 66.0703ZM71.9699 62.7754V67H70.8078V59.7812H71.9426V60.8408C72.1932 60.4307 72.4986 60.1299 72.8586 59.9385C73.2232 59.7425 73.6333 59.6445 74.0891 59.6445C74.5767 59.6445 75.021 59.7516 75.4221 59.9658C75.8231 60.1755 76.1421 60.4922 76.3791 60.916C76.6206 61.3398 76.7414 61.873 76.7414 62.5156V67H75.5793V62.5977C75.5793 61.9733 75.4289 61.5039 75.1281 61.1895C74.8319 60.8704 74.4126 60.7109 73.8703 60.7109C73.3462 60.7109 72.8973 60.8727 72.5236 61.1963C72.1545 61.5199 71.9699 62.0462 71.9699 62.7754ZM81.0245 67.1641C80.3592 67.1641 79.7736 67.0046 79.2677 66.6855C78.7664 66.362 78.3745 65.9176 78.0919 65.3525C77.8139 64.7874 77.6749 64.138 77.6749 63.4043C77.6749 62.666 77.8139 62.012 78.0919 61.4424C78.3745 60.8727 78.7664 60.4261 79.2677 60.1025C79.7736 59.779 80.3592 59.6172 81.0245 59.6172C81.5714 59.6172 82.0613 59.7266 82.4943 59.9453C82.9272 60.1595 83.2804 60.4557 83.5538 60.834C83.8318 61.2122 84.0027 61.6452 84.0665 62.1328H82.8907C82.8042 61.709 82.6036 61.3604 82.2892 61.0869C81.9793 60.8089 81.5577 60.6699 81.0245 60.6699C80.3455 60.6699 79.8123 60.9183 79.4249 61.415C79.0421 61.9118 78.8507 62.5749 78.8507 63.4043C78.8507 64.2246 79.0421 64.8809 79.4249 65.373C79.8077 65.8652 80.3409 66.1113 81.0245 66.1113C81.5669 66.1113 81.9816 65.9792 82.2687 65.7148C82.5558 65.446 82.7563 65.0905 82.8702 64.6484H84.0665C84.0027 65.1224 83.8318 65.5508 83.5538 65.9336C83.2804 66.3118 82.9249 66.6126 82.4874 66.8359C82.0545 67.0547 81.5669 67.1641 81.0245 67.1641ZM87.9327 67.1641C87.2263 67.1641 86.6224 67.0023 86.1211 66.6787C85.6244 66.3551 85.2439 65.9108 84.9795 65.3457C84.7152 64.776 84.583 64.1289 84.583 63.4043C84.583 62.6706 84.722 62.0189 85 61.4492C85.278 60.8796 85.6631 60.4329 86.1553 60.1094C86.6475 59.7812 87.2126 59.6172 87.8506 59.6172C88.5205 59.6172 89.1016 59.7767 89.5938 60.0957C90.086 60.4147 90.4642 60.859 90.7286 61.4287C90.9974 61.9984 91.1319 62.6569 91.1319 63.4043V63.7256H85.7315C85.7588 64.432 85.9616 65.0062 86.3399 65.4482C86.7181 65.8903 87.2491 66.1113 87.9327 66.1113C88.4476 66.1113 88.8669 65.9928 89.1905 65.7559C89.5186 65.5189 89.7373 65.2135 89.8467 64.8398H91.0088C90.9177 65.3001 90.7286 65.7057 90.4414 66.0566C90.1543 66.403 89.7943 66.6742 89.3614 66.8701C88.933 67.0661 88.4567 67.1641 87.9327 67.1641ZM85.7452 62.7275H89.9698C89.906 62.0941 89.6849 61.5905 89.3067 61.2168C88.9284 60.8431 88.4431 60.6562 87.8506 60.6562C87.2582 60.6562 86.7751 60.8431 86.4014 61.2168C86.0277 61.5905 85.809 62.0941 85.7452 62.7275Z" fill="black" fill-opacity="0.5"/>
<rect x="150" y="78" width="48" height="22" rx="11" fill="#10CF20" fill-opacity="0.1"/>
<path d="M161.229 88.3604V89.4541H156.772V88.3604H161.229ZM161.937 91.5391V90.5273L166.811 83.8145H168.315V90.4453H169.874V91.5391H168.315V94H167.14V91.5391H161.937ZM167.14 90.4453V85.1953H167.126L163.332 90.4316V90.4453H167.14ZM170.876 94.1162C170.639 94.1162 170.436 94.0342 170.267 93.8701C170.103 93.7015 170.021 93.4987 170.021 93.2617C170.021 93.0202 170.103 92.8174 170.267 92.6533C170.436 92.4893 170.639 92.4072 170.876 92.4072C171.117 92.4072 171.32 92.4893 171.484 92.6533C171.648 92.8174 171.73 93.0202 171.73 93.2617C171.73 93.4987 171.648 93.7015 171.484 93.8701C171.32 94.0342 171.117 94.1162 170.876 94.1162ZM175.843 94.1367C175.191 94.1367 174.605 94.0023 174.086 93.7334C173.566 93.46 173.151 93.0908 172.842 92.626C172.532 92.1611 172.363 91.6348 172.336 91.0469H173.566C173.621 91.6257 173.858 92.1042 174.277 92.4824C174.701 92.8561 175.223 93.043 175.843 93.043C176.285 93.043 176.67 92.9404 176.998 92.7354C177.33 92.5303 177.59 92.25 177.777 91.8945C177.964 91.5345 178.057 91.1243 178.057 90.6641C178.057 90.2038 177.969 89.7959 177.791 89.4404C177.613 89.085 177.365 88.807 177.046 88.6064C176.727 88.4014 176.355 88.2988 175.931 88.2988C175.371 88.2988 174.89 88.4128 174.489 88.6406C174.088 88.8639 173.808 89.1921 173.648 89.625H172.466L172.807 83.8145H178.686V84.9082H173.922L173.676 88.21H173.689C174.323 87.5309 175.12 87.1914 176.082 87.1914C176.706 87.1914 177.255 87.3395 177.729 87.6357C178.208 87.932 178.579 88.3398 178.844 88.8594C179.112 89.3789 179.247 89.9759 179.247 90.6504C179.247 91.334 179.103 91.9378 178.816 92.4619C178.534 92.986 178.137 93.3962 177.627 93.6924C177.116 93.9886 176.522 94.1367 175.843 94.1367ZM182.47 88.5039C182.042 88.5039 181.668 88.4036 181.349 88.2031C181.035 87.998 180.789 87.7201 180.611 87.3691C180.438 87.0182 180.351 86.6217 180.351 86.1797V85.9746C180.351 85.5326 180.438 85.1361 180.611 84.7852C180.789 84.4342 181.035 84.1585 181.349 83.958C181.668 83.7529 182.042 83.6504 182.47 83.6504C182.899 83.6504 183.27 83.7529 183.585 83.958C183.899 84.1585 184.143 84.4342 184.316 84.7852C184.489 85.1361 184.576 85.5326 184.576 85.9746V86.1797C184.576 86.6217 184.489 87.0182 184.316 87.3691C184.143 87.7201 183.899 87.998 183.585 88.2031C183.27 88.4036 182.899 88.5039 182.47 88.5039ZM188.254 94.1641C187.825 94.1641 187.452 94.0638 187.132 93.8633C186.818 93.6582 186.572 93.3802 186.394 93.0293C186.221 92.6784 186.134 92.2819 186.134 91.8398V91.6348C186.134 91.1927 186.221 90.7962 186.394 90.4453C186.572 90.0944 186.818 89.8187 187.132 89.6182C187.452 89.4131 187.825 89.3105 188.254 89.3105C188.682 89.3105 189.053 89.4131 189.368 89.6182C189.682 89.8187 189.926 90.0944 190.099 90.4453C190.272 90.7962 190.359 91.1927 190.359 91.6348V91.8398C190.359 92.2819 190.272 92.6784 190.099 93.0293C189.926 93.3802 189.682 93.6582 189.368 93.8633C189.053 94.0638 188.682 94.1641 188.254 94.1641ZM181.24 94L188.24 83.8145H189.429L182.429 94H181.24ZM182.47 87.6152C182.799 87.6152 183.058 87.4876 183.25 87.2324C183.441 86.9772 183.537 86.6263 183.537 86.1797V85.9746C183.537 85.528 183.441 85.1771 183.25 84.9219C183.058 84.6667 182.799 84.5391 182.47 84.5391C182.138 84.5391 181.873 84.6667 181.677 84.9219C181.486 85.1771 181.39 85.528 181.39 85.9746V86.1797C181.39 86.6263 181.486 86.9772 181.677 87.2324C181.873 87.4876 182.138 87.6152 182.47 87.6152ZM188.254 93.2754C188.582 93.2754 188.841 93.1478 189.033 92.8926C189.224 92.6374 189.32 92.2865 189.32 91.8398V91.6348C189.32 91.1882 189.224 90.8372 189.033 90.582C188.841 90.3268 188.582 90.1992 188.254 90.1992C187.921 90.1992 187.657 90.3268 187.461 90.582C187.269 90.8372 187.174 91.1882 187.174 91.6348V91.8398C187.174 92.2865 187.269 92.6374 187.461 92.8926C187.657 93.1478 187.921 93.2754 188.254 93.2754Z" fill="#10CF20"/>
<path d="M23.512 98.336C22.296 98.336 21.208 98.12 20.248 97.688C19.288 97.256 18.528 96.608 17.968 95.744C17.424 94.864 17.152 93.768 17.152 92.456V91.952H19.144V92.456C19.144 93.848 19.552 94.888 20.368 95.576C21.184 96.248 22.232 96.584 23.512 96.584C24.824 96.584 25.824 96.288 26.512 95.696C27.2 95.104 27.544 94.36 27.544 93.464C27.544 92.84 27.392 92.344 27.088 91.976C26.784 91.608 26.352 91.312 25.792 91.088C25.232 90.848 24.576 90.64 23.824 90.464L22.552 90.152C21.576 89.896 20.712 89.584 19.96 89.216C19.208 88.848 18.616 88.368 18.184 87.776C17.768 87.168 17.56 86.392 17.56 85.448C17.56 84.504 17.8 83.688 18.28 83C18.76 82.312 19.424 81.784 20.272 81.416C21.12 81.048 22.112 80.864 23.248 80.864C24.384 80.864 25.4 81.064 26.296 81.464C27.192 81.848 27.904 82.424 28.432 83.192C28.96 83.944 29.224 84.896 29.224 86.048V87.056H27.232V86.048C27.232 85.232 27.056 84.576 26.704 84.08C26.368 83.584 25.896 83.216 25.288 82.976C24.696 82.736 24.016 82.616 23.248 82.616C22.144 82.616 21.256 82.864 20.584 83.36C19.912 83.84 19.576 84.528 19.576 85.424C19.576 86.016 19.712 86.496 19.984 86.864C20.272 87.232 20.68 87.536 21.208 87.776C21.736 88 22.368 88.2 23.104 88.376L24.376 88.688C25.336 88.896 26.208 89.184 26.992 89.552C27.776 89.904 28.392 90.392 28.84 91.016C29.304 91.624 29.536 92.424 29.536 93.416C29.536 94.408 29.288 95.272 28.792 96.008C28.296 96.744 27.592 97.32 26.68 97.736C25.784 98.136 24.728 98.336 23.512 98.336ZM22.6 100.784V78.416H24.448V100.784H22.6ZM31.2707 98V96.248C31.2707 95.048 31.4787 94.088 31.8947 93.368C32.3267 92.648 32.9187 92.072 33.6708 91.64C34.4387 91.192 35.3507 90.808 36.4068 90.488L37.7268 90.08C38.4468 89.856 39.0788 89.584 39.6228 89.264C40.1668 88.928 40.5908 88.512 40.8948 88.016C41.1988 87.504 41.3508 86.88 41.3508 86.144V86.048C41.3508 84.992 40.9828 84.16 40.2468 83.552C39.5108 82.928 38.5668 82.616 37.4148 82.616C36.1988 82.616 35.2067 82.944 34.4387 83.6C33.6707 84.24 33.2867 85.216 33.2867 86.528V86.864H31.3667V86.552C31.3667 85.336 31.6307 84.304 32.1587 83.456C32.6867 82.608 33.4067 81.968 34.3187 81.536C35.2308 81.088 36.2628 80.864 37.4148 80.864C38.5668 80.864 39.5828 81.08 40.4628 81.512C41.3588 81.944 42.0547 82.544 42.5507 83.312C43.0468 84.08 43.2948 84.976 43.2948 86V86.216C43.2948 87.304 43.0788 88.208 42.6467 88.928C42.2147 89.632 41.6147 90.208 40.8468 90.656C40.0948 91.104 39.2068 91.488 38.1828 91.808L36.8867 92.216C36.0707 92.472 35.3908 92.744 34.8467 93.032C34.3188 93.304 33.9188 93.656 33.6467 94.088C33.3747 94.52 33.2387 95.104 33.2387 95.84V96.248H43.1508V98H31.2707ZM50.9877 98.336C49.7557 98.336 48.6917 98.104 47.7957 97.64C46.8997 97.16 46.2037 96.504 45.7077 95.672C45.2117 94.824 44.9637 93.848 44.9637 92.744V92.456H46.9077V92.672C46.9077 93.936 47.2757 94.904 48.0117 95.576C48.7477 96.248 49.7237 96.584 50.9397 96.584C52.2197 96.584 53.2197 96.224 53.9397 95.504C54.6597 94.784 55.0197 93.8 55.0197 92.552V92.336C55.0197 91.136 54.6677 90.184 53.9637 89.48C53.2757 88.76 52.3797 88.4 51.2757 88.4C50.6357 88.4 50.1077 88.504 49.6917 88.712C49.2757 88.904 48.9477 89.152 48.7077 89.456C48.4677 89.744 48.2677 90.024 48.1077 90.296H45.4677V81.2H56.5077V82.952H47.4117V88.76H47.7477C47.9237 88.44 48.1637 88.128 48.4677 87.824C48.7877 87.52 49.2117 87.264 49.7397 87.056C50.2677 86.848 50.9237 86.744 51.7077 86.744C52.6837 86.744 53.5637 86.968 54.3477 87.416C55.1477 87.864 55.7797 88.504 56.2437 89.336C56.7237 90.168 56.9637 91.16 56.9637 92.312V92.576C56.9637 93.712 56.7237 94.712 56.2437 95.576C55.7637 96.44 55.0757 97.12 54.1797 97.616C53.2837 98.096 52.2197 98.336 50.9877 98.336ZM59.1869 101V99.8H59.8829C60.4589 99.8 60.7469 99.512 60.7469 98.936V98.168H60.4109C59.9469 98.168 59.5549 98.024 59.2349 97.736C58.9309 97.448 58.7789 97.088 58.7789 96.656C58.7789 96.192 58.9309 95.816 59.2349 95.528C59.5549 95.24 59.9469 95.096 60.4109 95.096C60.8749 95.096 61.2589 95.248 61.5629 95.552C61.8669 95.856 62.0189 96.24 62.0189 96.704V98.936C62.0189 100.312 61.3309 101 59.9549 101H59.1869ZM72.2183 98V94.568H63.4583V92.264L70.5143 81.2H74.1623V92.816H77.0423V94.568H74.1623V98H72.2183ZM65.4023 92.816H72.2183V82.376H71.8823L65.4023 92.528V92.816ZM84.4343 98.336C83.1383 98.336 82.0103 98.144 81.0503 97.76C80.1063 97.36 79.3703 96.808 78.8423 96.104C78.3303 95.384 78.0743 94.544 78.0743 93.584V93.32C78.0743 92.488 78.2503 91.8 78.6023 91.256C78.9543 90.712 79.3783 90.296 79.8743 90.008C80.3863 89.704 80.8583 89.512 81.2903 89.432V89.12C80.8583 88.992 80.4103 88.784 79.9463 88.496C79.4983 88.208 79.1223 87.816 78.8183 87.32C78.5303 86.824 78.3863 86.216 78.3863 85.496V85.232C78.3863 84.32 78.6423 83.544 79.1543 82.904C79.6823 82.248 80.4023 81.744 81.3143 81.392C82.2263 81.04 83.2663 80.864 84.4343 80.864C85.6183 80.864 86.6583 81.04 87.5543 81.392C88.4663 81.744 89.1783 82.248 89.6903 82.904C90.2183 83.544 90.4823 84.32 90.4823 85.232V85.496C90.4823 86.216 90.3383 86.824 90.0503 87.32C89.7623 87.816 89.3943 88.208 88.9463 88.496C88.4983 88.784 88.0503 88.992 87.6023 89.12V89.432C88.0503 89.512 88.5223 89.704 89.0183 90.008C89.5143 90.296 89.9303 90.712 90.2663 91.256C90.6183 91.8 90.7943 92.488 90.7943 93.32V93.584C90.7943 94.544 90.5383 95.384 90.0263 96.104C89.5143 96.808 88.7783 97.36 87.8183 97.76C86.8743 98.144 85.7463 98.336 84.4343 98.336ZM84.4343 96.584C85.7943 96.584 86.8663 96.32 87.6503 95.792C88.4503 95.264 88.8503 94.496 88.8503 93.488V93.296C88.8503 92.288 88.4583 91.52 87.6743 90.992C86.8903 90.464 85.8103 90.2 84.4343 90.2C83.0743 90.2 82.0023 90.464 81.2183 90.992C80.4343 91.52 80.0423 92.288 80.0423 93.296V93.488C80.0423 94.496 80.4343 95.264 81.2183 95.792C82.0183 96.32 83.0903 96.584 84.4343 96.584ZM84.4343 88.448C85.7143 88.448 86.7143 88.208 87.4343 87.728C88.1703 87.232 88.5383 86.536 88.5383 85.64V85.448C88.5383 84.536 88.1703 83.84 87.4343 83.36C86.6983 82.864 85.6983 82.616 84.4343 82.616C83.1703 82.616 82.1703 82.864 81.4343 83.36C80.6983 83.84 80.3303 84.536 80.3303 85.448V85.64C80.3303 86.536 80.6983 87.232 81.4343 87.728C82.1703 88.208 83.1703 88.448 84.4343 88.448ZM98.8834 98.336C96.9794 98.336 95.4594 97.776 94.3234 96.656C93.2034 95.52 92.6434 93.824 92.6434 91.568V87.632C92.6434 85.392 93.2034 83.704 94.3234 82.568C95.4594 81.432 96.9794 80.864 98.8834 80.864C100.803 80.864 102.323 81.432 103.443 82.568C104.579 83.704 105.147 85.392 105.147 87.632V91.568C105.147 93.824 104.579 95.52 103.443 96.656C102.323 97.776 100.803 98.336 98.8834 98.336ZM98.8834 96.584C100.323 96.584 101.403 96.152 102.123 95.288C102.843 94.424 103.203 93.216 103.203 91.664V87.512C103.203 85.96 102.835 84.76 102.099 83.912C101.363 83.048 100.291 82.616 98.8834 82.616C97.4754 82.616 96.4034 83.048 95.6674 83.912C94.9474 84.776 94.5874 85.976 94.5874 87.512V91.664C94.5874 93.232 94.9474 94.448 95.6674 95.312C96.3874 96.16 97.4594 96.584 98.8834 96.584ZM108.507 98.336C108.043 98.336 107.651 98.184 107.331 97.88C107.027 97.576 106.875 97.184 106.875 96.704C106.875 96.224 107.027 95.832 107.331 95.528C107.651 95.224 108.043 95.072 108.507 95.072C108.987 95.072 109.379 95.224 109.683 95.528C109.987 95.832 110.139 96.224 110.139 96.704C110.139 97.184 109.987 97.576 109.683 97.88C109.379 98.184 108.987 98.336 108.507 98.336ZM120.362 98V94.568H111.602V92.264L118.658 81.2H122.306V92.816H125.186V94.568H122.306V98H120.362ZM113.546 92.816H120.362V82.376H120.026L113.546 92.528V92.816ZM132.29 98.336C131.058 98.336 130.002 98.12 129.122 97.688C128.258 97.24 127.602 96.632 127.154 95.864C126.706 95.096 126.482 94.224 126.482 93.248H128.426C128.426 94.24 128.754 95.048 129.41 95.672C130.066 96.28 131.026 96.584 132.29 96.584C133.618 96.584 134.634 96.232 135.338 95.528C136.058 94.808 136.418 93.824 136.418 92.576V90.248H136.106C135.802 90.728 135.314 91.176 134.642 91.592C133.986 91.992 133.058 92.192 131.858 92.192C130.85 92.192 129.922 91.968 129.074 91.52C128.242 91.072 127.578 90.44 127.082 89.624C126.586 88.808 126.338 87.84 126.338 86.72V86.432C126.338 85.28 126.602 84.296 127.13 83.48C127.658 82.648 128.37 82.008 129.266 81.56C130.178 81.096 131.21 80.864 132.362 80.864C133.53 80.864 134.562 81.096 135.458 81.56C136.37 82.008 137.082 82.656 137.594 83.504C138.106 84.336 138.362 85.344 138.362 86.528V92.384C138.362 93.632 138.114 94.704 137.618 95.6C137.138 96.48 136.442 97.16 135.53 97.64C134.618 98.104 133.538 98.336 132.29 98.336ZM132.362 90.56C133.162 90.56 133.866 90.4 134.474 90.08C135.082 89.744 135.554 89.288 135.89 88.712C136.242 88.12 136.418 87.432 136.418 86.648V86.456C136.418 85.256 136.042 84.32 135.29 83.648C134.554 82.96 133.578 82.616 132.362 82.616C131.146 82.616 130.162 82.96 129.41 83.648C128.658 84.32 128.282 85.256 128.282 86.456V86.648C128.282 87.432 128.45 88.12 128.786 88.712C129.138 89.288 129.618 89.744 130.226 90.08C130.85 90.4 131.562 90.56 132.362 90.56Z" fill="black"/>
<line x1="24.5" y1="179.5" x2="24.5" y2="120.5" stroke="#E9E9E9" stroke-linecap="round" stroke-dasharray="3 3"/>
<line x1="78.5" y1="179.5" x2="78.5" y2="120.5" stroke="#E9E9E9" stroke-linecap="round" stroke-dasharray="3 3"/>
<line x1="132.5" y1="179.5" x2="132.5" y2="120.5" stroke="#E9E9E9" stroke-linecap="round" stroke-dasharray="3 3"/>
<line x1="186.5" y1="179.5" x2="186.5" y2="120.5" stroke="#E9E9E9" stroke-linecap="round" stroke-dasharray="3 3"/>
<line x1="240.5" y1="179.5" x2="240.5" y2="120.5" stroke="#E9E9E9" stroke-linecap="round" stroke-dasharray="3 3"/>
<line x1="294.5" y1="179.5" x2="294.5" y2="120.5" stroke="#E9E9E9" stroke-linecap="round" stroke-dasharray="3 3"/>
<path d="M16 172.493H19.0711C21.1872 172.493 23.1468 171.378 24.2283 169.559L44.5146 135.441C45.5961 133.622 47.5558 132.508 49.6719 132.508H64.6494C66.3564 132.508 67.9826 133.235 69.1209 134.507L83.9148 151.041C85.053 152.314 86.6792 153.041 88.3862 153.041H98.7877C100.114 153.041 101.403 153.48 102.452 154.29L118.125 166.38C119.175 167.19 120.464 167.63 121.79 167.63H128.552C129.85 167.63 131.113 167.209 132.152 166.43L148.404 154.241C149.442 153.462 150.706 153.041 152.004 153.041H174.44C176.087 153.041 177.662 152.363 178.796 151.167L194.698 134.381C195.831 133.185 197.406 132.508 199.054 132.508H215.775C217.263 132.508 218.697 133.06 219.8 134.059L239.066 151.49C240.17 152.488 241.604 153.041 243.092 153.041H250.502C251.567 153.041 252.612 152.758 253.531 152.22L285.847 133.328C286.765 132.791 287.81 132.508 288.875 132.508H304" stroke="#FF6200" stroke-width="2.5"/>
<path d="M24.6797 193.141C24.0352 193.141 23.4766 192.957 23.0039 192.59C22.5352 192.219 22.1719 191.697 21.9141 191.025C21.6562 190.354 21.5273 189.559 21.5273 188.641C21.5273 187.719 21.6562 186.922 21.9141 186.25C22.1719 185.574 22.5352 185.053 23.0039 184.686C23.4766 184.314 24.0352 184.129 24.6797 184.129C25.3242 184.129 25.8828 184.314 26.3555 184.686C26.8281 185.053 27.1914 185.574 27.4453 186.25C27.7031 186.922 27.832 187.719 27.832 188.641C27.832 189.559 27.7031 190.354 27.4453 191.025C27.1914 191.697 26.8281 192.219 26.3555 192.59C25.8828 192.957 25.3242 193.141 24.6797 193.141ZM24.6797 192.203C25.3477 192.203 25.873 191.887 26.2559 191.254C26.6426 190.617 26.8359 189.746 26.8359 188.641C26.8359 187.527 26.6426 186.654 26.2559 186.021C25.873 185.385 25.3477 185.066 24.6797 185.066C24.0117 185.066 23.4844 185.385 23.0977 186.021C22.7148 186.654 22.5234 187.527 22.5234 188.641C22.5234 189.746 22.7148 190.617 23.0977 191.254C23.4844 191.887 24.0117 192.203 24.6797 192.203Z" fill="black" fill-opacity="0.5"/>
<path d="M72.762 193V192.115L75.8675 189.279C76.2386 188.939 76.5394 188.641 76.7698 188.383C77.0042 188.125 77.1761 187.873 77.2855 187.627C77.3948 187.381 77.4495 187.109 77.4495 186.812C77.4495 186.273 77.2894 185.848 76.9691 185.535C76.6527 185.223 76.2171 185.066 75.6624 185.066C75.0648 185.066 74.6019 185.25 74.2737 185.617C73.9456 185.98 73.7816 186.473 73.7816 187.094H72.7972C72.7972 186.512 72.9144 185.998 73.1487 185.553C73.387 185.107 73.721 184.76 74.1507 184.51C74.5804 184.256 75.0823 184.129 75.6566 184.129C76.2034 184.129 76.6859 184.242 77.1038 184.469C77.5218 184.691 77.8499 185.002 78.0882 185.4C78.3265 185.795 78.4456 186.252 78.4456 186.771C78.4456 187.334 78.2894 187.852 77.9769 188.324C77.6683 188.797 77.1937 189.324 76.553 189.906L74.1917 192.051V192.062H78.4984V193H72.762ZM79.3805 193V184.27H80.3766V189.596H80.3884L83.2653 186.812H84.5544L81.8298 189.461L84.7536 193H83.488L81.068 190.088L80.3766 190.715V193H79.3805Z" fill="black" fill-opacity="0.5"/>
<path d="M129.674 193.141C129.073 193.141 128.541 193.02 128.08 192.777C127.619 192.531 127.258 192.191 126.996 191.758C126.735 191.324 126.604 190.824 126.604 190.258H127.67C127.67 190.875 127.844 191.355 128.192 191.699C128.539 192.043 129.026 192.215 129.651 192.215C130.248 192.215 130.733 192.064 131.104 191.764C131.479 191.459 131.666 191.051 131.666 190.539C131.666 190.074 131.467 189.701 131.069 189.42C130.67 189.135 130.151 188.992 129.51 188.992H128.807V188.055H129.51C130.073 188.055 130.528 187.926 130.875 187.668C131.223 187.406 131.397 187.062 131.397 186.637C131.397 186.145 131.233 185.758 130.905 185.477C130.58 185.195 130.147 185.055 129.604 185.055C129.049 185.055 128.612 185.211 128.291 185.523C127.971 185.832 127.811 186.262 127.811 186.812H126.791C126.791 186.285 126.91 185.82 127.149 185.418C127.391 185.012 127.723 184.695 128.145 184.469C128.571 184.242 129.059 184.129 129.61 184.129C130.145 184.129 130.625 184.234 131.051 184.445C131.477 184.656 131.813 184.945 132.059 185.312C132.305 185.68 132.428 186.102 132.428 186.578C132.428 187.02 132.287 187.412 132.006 187.756C131.729 188.096 131.346 188.34 130.858 188.488V188.506C131.416 188.6 131.862 188.834 132.194 189.209C132.53 189.58 132.698 190.023 132.698 190.539C132.698 191.047 132.565 191.498 132.299 191.893C132.037 192.283 131.678 192.59 131.221 192.812C130.768 193.031 130.252 193.141 129.674 193.141ZM133.603 193V184.27H134.599V189.596H134.611L137.488 186.812H138.777L136.052 189.461L138.976 193H137.711L135.291 190.088L134.599 190.715V193H133.603Z" fill="black" fill-opacity="0.5"/>
<path d="M179.729 190.891V190.023L183.907 184.27H185.196V189.953H186.532V190.891H185.196V193H184.188V190.891H179.729ZM184.188 189.953V185.453H184.176L180.924 189.941V189.953H184.188ZM187.22 193V184.27H188.216V189.596H188.228L191.105 186.812H192.394L189.67 189.461L192.593 193H191.328L188.908 190.088L188.216 190.715V193H187.22Z" fill="black" fill-opacity="0.5"/>
<path d="M237.645 193.117C237.086 193.117 236.584 193.002 236.139 192.771C235.694 192.537 235.338 192.221 235.073 191.822C234.807 191.424 234.662 190.973 234.639 190.469H235.694C235.741 190.965 235.944 191.375 236.303 191.699C236.666 192.02 237.114 192.18 237.645 192.18C238.024 192.18 238.354 192.092 238.635 191.916C238.92 191.74 239.143 191.5 239.303 191.195C239.463 190.887 239.543 190.535 239.543 190.141C239.543 189.746 239.467 189.396 239.315 189.092C239.162 188.787 238.95 188.549 238.676 188.377C238.403 188.201 238.084 188.113 237.721 188.113C237.241 188.113 236.828 188.211 236.485 188.406C236.141 188.598 235.901 188.879 235.764 189.25H234.75L235.043 184.27H240.082V185.207H235.998L235.787 188.037H235.799C236.342 187.455 237.026 187.164 237.85 187.164C238.385 187.164 238.856 187.291 239.262 187.545C239.672 187.799 239.991 188.148 240.217 188.594C240.448 189.039 240.563 189.551 240.563 190.129C240.563 190.715 240.44 191.232 240.194 191.682C239.951 192.131 239.612 192.482 239.174 192.736C238.737 192.99 238.227 193.117 237.645 193.117ZM241.474 193V184.27H242.47V189.596H242.482L245.359 186.812H246.648L243.924 189.461L246.847 193H245.582L243.162 190.088L242.47 190.715V193H241.474Z" fill="black" fill-opacity="0.5"/>
<path d="M291.692 193.141C290.727 193.141 289.979 192.781 289.448 192.062C288.92 191.34 288.657 190.32 288.657 189.004C288.657 188.023 288.768 187.168 288.991 186.438C289.217 185.707 289.565 185.141 290.034 184.738C290.502 184.332 291.102 184.129 291.832 184.129C292.59 184.129 293.209 184.342 293.69 184.768C294.174 185.193 294.457 185.754 294.539 186.449H293.508C293.426 186.027 293.246 185.691 292.969 185.441C292.696 185.191 292.338 185.066 291.897 185.066C291.393 185.066 290.975 185.211 290.643 185.5C290.315 185.789 290.069 186.188 289.905 186.695C289.744 187.199 289.664 187.777 289.664 188.43H289.676C289.875 188.094 290.172 187.824 290.567 187.621C290.965 187.418 291.399 187.316 291.867 187.316C292.395 187.316 292.864 187.443 293.274 187.697C293.688 187.947 294.014 188.291 294.252 188.729C294.491 189.162 294.61 189.656 294.61 190.211C294.61 190.785 294.485 191.293 294.235 191.734C293.989 192.176 293.647 192.521 293.209 192.771C292.772 193.018 292.266 193.141 291.692 193.141ZM291.692 192.203C292.043 192.203 292.362 192.115 292.647 191.939C292.936 191.76 293.164 191.52 293.332 191.219C293.504 190.914 293.59 190.578 293.59 190.211C293.59 189.844 293.508 189.514 293.344 189.221C293.18 188.924 292.957 188.689 292.676 188.518C292.395 188.342 292.078 188.254 291.727 188.254C291.375 188.254 291.053 188.342 290.76 188.518C290.471 188.693 290.239 188.932 290.063 189.232C289.891 189.529 289.805 189.859 289.805 190.223C289.805 190.586 289.889 190.918 290.057 191.219C290.229 191.52 290.457 191.76 290.742 191.939C291.028 192.115 291.344 192.203 291.692 192.203ZM295.515 193V184.27H296.511V189.596H296.523L299.4 186.812H300.689L297.965 189.461L300.888 193H299.623L297.203 190.088L296.511 190.715V193H295.515Z" fill="black" fill-opacity="0.5"/>
</svg>
