<svg width="20" height="20" viewBox="0 0 20 20" fill="none" xmlns="http://www.w3.org/2000/svg">
<g clip-path="url(#clip0_583_12203)">
<path d="M7.561 17.3492C7.47812 17.4927 7.34161 17.5975 7.1815 17.6404C7.02138 17.6833 6.85079 17.6608 6.70724 17.5779L4.54217 16.3279C4.39862 16.2451 4.29387 16.1086 4.25097 15.9484C4.20807 15.7883 4.23053 15.6177 4.31341 15.4742C4.39629 15.3306 4.5328 15.2259 4.69291 15.183C4.85302 15.1401 5.02362 15.1625 5.16717 15.2454L7.33224 16.4954C7.47579 16.5783 7.58054 16.7148 7.62344 16.8749C7.66634 17.035 7.64388 17.2056 7.561 17.3492ZM15.0696 15.5346L12.0603 18.8156C11.9174 18.9714 11.7374 19.0885 11.5369 19.1558C11.3365 19.2231 11.1223 19.2385 10.9144 19.2005C10.7064 19.1626 10.5115 19.0725 10.3478 18.9387C10.1841 18.8049 10.057 18.6317 9.97845 18.4355L8.93896 15.9797L4.8118 13.5969L2.16392 13.9238C1.95467 13.9538 1.7412 13.9304 1.54349 13.8555C1.34577 13.7806 1.17027 13.6569 1.0334 13.4958C0.896534 13.3346 0.802763 13.1414 0.760864 12.9342C0.718964 12.727 0.730304 12.5125 0.793823 12.3109L2.13061 8.06426C2.1884 7.88226 2.28688 7.71582 2.4186 7.57757C2.55031 7.43931 2.7118 7.33288 2.89079 7.26636L6.16139 6.06401C6.71806 5.2496 7.39676 4.52571 8.17364 3.91775C10.3097 2.23359 12.6652 1.76315 13.5812 1.64067C13.8558 1.60319 14.1351 1.65807 14.3752 1.79666C14.6152 1.93526 14.8024 2.14971 14.9073 2.4063C15.2572 3.25963 16.0295 5.53593 15.639 8.22791C15.501 9.20468 15.2134 10.1544 14.7865 11.0437L15.3805 14.4773C15.4124 14.6656 15.401 14.8586 15.3471 15.0418C15.2932 15.225 15.1983 15.3935 15.0696 15.5346ZM4.32139 12.3963C4.35855 10.6538 4.66833 9.09851 5.25073 7.73037L3.32298 8.43965L1.9858 12.687L2.00306 12.6852L4.32139 12.3963ZM11.5929 8.49081C11.6856 8.33023 11.7286 8.14577 11.7164 7.96075C11.7043 7.77572 11.6376 7.59845 11.5247 7.45135C11.4118 7.30424 11.2579 7.19392 11.0823 7.13432C10.9067 7.07471 10.7174 7.06852 10.5383 7.11651C10.3592 7.1645 10.1984 7.26452 10.0761 7.40393C9.95385 7.54333 9.87568 7.71586 9.85147 7.89969C9.82727 8.08353 9.85813 8.27041 9.94014 8.43671C10.0221 8.60301 10.1516 8.74125 10.3122 8.83396C10.5275 8.95828 10.7834 8.99197 11.0236 8.92762C11.2638 8.86327 11.4685 8.70614 11.5929 8.49081ZM14.1483 14.6896L13.7987 12.6655C12.908 13.852 11.7157 14.8984 10.2218 15.8047L11.1323 17.9542L11.1394 17.97L14.1483 14.6896Z" fill="black"/>
</g>
<defs>
<clipPath id="clip0_583_12203">
<rect width="20" height="20" fill="white"/>
</clipPath>
</defs>
</svg>
