<svg width="32" height="33" viewBox="0 0 32 33" fill="none" xmlns="http://www.w3.org/2000/svg">
<g clip-path="url(#clip0_583_21440)">
<path d="M16 32.9844C24.8366 32.9844 32 25.8209 32 16.9844C32 8.14782 24.8366 0.984375 16 0.984375C7.16344 0.984375 0 8.14782 0 16.9844C0 25.8209 7.16344 32.9844 16 32.9844Z" fill="#F0F0F0"/>
<path d="M15.3037 16.9845H31.9993C31.9993 15.5404 31.8068 14.1414 31.4481 12.8105H15.3037V16.9845Z" fill="#D80027"/>
<path d="M15.3037 8.63683H29.651C28.6715 7.03858 27.4192 5.62589 25.9591 4.46289H15.3037V8.63683Z" fill="#D80027"/>
<path d="M15.9998 32.9841C19.7654 32.9841 23.2264 31.6826 25.9595 29.5059H6.04004C8.77316 31.6826 12.2342 32.9841 15.9998 32.9841Z" fill="#D80027"/>
<path d="M2.34797 25.3321H29.6512C30.4375 24.0491 31.0473 22.6466 31.4484 21.1582H0.550781C0.951844 22.6466 1.56166 24.0491 2.34797 25.3321Z" fill="#D80027"/>
<path d="M7.4115 3.483H8.86956L7.51331 4.46831L8.03137 6.06262L6.67519 5.07731L5.319 6.06262L5.7665 4.68531C4.57237 5.68 3.52575 6.84538 2.66325 8.14388H3.13044L2.26712 8.77106C2.13262 8.99544 2.00362 9.22337 1.88 9.45469L2.29225 10.7235L1.52313 10.1647C1.33194 10.5697 1.15706 10.9839 0.999875 11.4067L1.45406 12.8048H3.13044L1.77419 13.7901L2.29225 15.3844L0.936063 14.3991L0.123687 14.9893C0.042375 15.6429 0 16.3087 0 16.9844H16C16 8.14787 16 7.10612 16 0.984375C12.8393 0.984375 9.89281 1.90125 7.4115 3.483ZM8.03137 15.3844L6.67519 14.3991L5.319 15.3844L5.83706 13.7901L4.48081 12.8048H6.15719L6.67519 11.2104L7.19319 12.8048H8.86956L7.51331 13.7901L8.03137 15.3844ZM7.51331 9.12919L8.03137 10.7235L6.67519 9.73819L5.319 10.7235L5.83706 9.12919L4.48081 8.14388H6.15719L6.67519 6.54956L7.19319 8.14388H8.86956L7.51331 9.12919ZM13.7705 15.3844L12.4143 14.3991L11.0581 15.3844L11.5762 13.7901L10.2199 12.8048H11.8963L12.4143 11.2104L12.9323 12.8048H14.6087L13.2524 13.7901L13.7705 15.3844ZM13.2524 9.12919L13.7705 10.7235L12.4143 9.73819L11.0581 10.7235L11.5762 9.12919L10.2199 8.14388H11.8963L12.4143 6.54956L12.9323 8.14388H14.6087L13.2524 9.12919ZM13.2524 4.46831L13.7705 6.06262L12.4143 5.07731L11.0581 6.06262L11.5762 4.46831L10.2199 3.483H11.8963L12.4143 1.88869L12.9323 3.483H14.6087L13.2524 4.46831Z" fill="#0052B4"/>
</g>
<defs>
<clipPath id="clip0_583_21440">
<rect width="32" height="32" fill="white" transform="translate(0 0.984375)"/>
</clipPath>
</defs>
</svg>
