<svg width="144" height="34" viewBox="0 0 144 34" fill="none" xmlns="http://www.w3.org/2000/svg">
<path d="M56.8905 26.7539L52.8993 8.37327H56.3916L59.4901 22.7627L62.8248 8.37327H65.9758L69.3106 22.7627L72.409 8.37327H75.8751L71.8839 26.7539H67.3412L64.4003 14.15L61.4594 26.7539H56.8905ZM80.0604 27.174C77.4083 27.174 75.544 25.5198 75.544 23.1828C75.544 20.7933 77.4346 19.4017 81.2945 18.929C83.4739 18.6664 84.393 18.1938 84.3142 17.406C84.2354 16.6446 83.4214 16.1719 82.1873 16.1719C80.5593 16.1719 79.4302 16.9334 79.4302 18.0362L75.9116 17.7737C75.9116 15.0691 78.3799 13.2047 81.951 13.2047C85.5746 13.2047 87.9115 15.1478 87.9115 18.1938V26.7539H84.3667V24.5745C83.6052 26.2025 82.0822 27.174 80.0604 27.174ZM79.1676 22.8415C79.1676 23.708 79.9291 24.2069 81.0057 24.2069C82.975 24.2069 84.2354 22.5526 84.3667 19.9793C83.8153 20.6358 82.7387 21.0822 81.4258 21.2397C79.8503 21.4498 79.1676 21.9749 79.1676 22.8415ZM89.6327 26.7539V8.11069H93.1775V26.7539H89.6327ZM101.202 26.7539C98.2086 26.7539 96.7381 25.3622 96.7381 22.5526V16.592H93.9023V13.6249H96.7381V9.39733H100.283V13.6249H104.222V16.592H100.283V22.2113C100.283 23.2616 100.808 23.7867 101.858 23.7867H104.222V26.7539H101.202ZM111.515 27.174C107.288 27.174 104.425 24.3644 104.425 20.1631C104.425 16.0931 107.182 13.2047 111.016 13.2047C114.876 13.2047 117.581 16.0931 117.581 20.2419V21.2397H108.075C108.075 22.999 109.388 24.2069 111.305 24.2069C112.618 24.2069 113.616 23.6292 114.01 22.6314L117.581 22.894C117.187 25.4673 114.797 27.174 111.515 27.174ZM108.075 18.6664H113.931C113.931 17.1697 112.749 16.1719 111.016 16.1719C109.283 16.1719 108.075 17.196 108.075 18.6664ZM118.795 26.7539V13.6249H122.34V16.382C122.891 14.5964 123.863 13.6249 125.254 13.6249H127.67V16.592H125.517C123.18 16.592 122.34 17.8262 122.34 21.2922V26.7539H118.795ZM126.042 26.7539V22.5526H130.506V26.7539H126.042Z" fill="white"/>
<path fill-rule="evenodd" clip-rule="evenodd" d="M21.1129 2H6.99902L0 13.1026V31.8064L10.6719 31.8064L21.1123 16.5566V31.8064L21.1129 31.8064V2Z" fill="white"/>
<path fill-rule="evenodd" clip-rule="evenodd" d="M21.1172 16.5479V31.8064H42.2301V2H28.0733L21.1172 16.5479ZM42.2295 16.5557V31.8055H31.7891L42.2295 16.5557Z" fill="white"/>
</svg>
